<svg xmlns="http://www.w3.org/2000/svg" xmlns:xlink="http://www.w3.org/1999/xlink" width="500" zoomAndPan="magnify" viewBox="0 0 375 374.999991" height="500" preserveAspectRatio="xMidYMid meet" version="1.0"><defs><clipPath id="d41e0d420f"><path d="M 0 8.085938 L 374.992188 8.085938 L 374.992188 366.917969 L 0 366.917969 Z M 0 8.085938 " clip-rule="nonzero"/></clipPath><clipPath id="17acba4695"><path d="M 0 8.085938 L 374.992188 8.085938 L 374.992188 366.917969 L 0 366.917969 Z M 0 8.085938 " clip-rule="nonzero"/></clipPath></defs><path fill="#d9d2c5" d="M 146.488281 76.230469 C 150.523438 76.542969 158.03125 72.179688 156.828125 70.210938 C 156.292969 69.355469 156.496094 69.140625 157.355469 69.660156 C 158.148438 70.148438 161.308594 68.054688 164.628906 64.820312 L 170.511719 59.105469 L 173.523438 62.113281 C 175.171875 63.765625 176.90625 67.015625 177.371094 69.335938 C 177.996094 72.480469 179.308594 74.09375 182.539062 75.71875 C 184.925781 76.925781 187.835938 77.902344 189.011719 77.90625 C 194.378906 77.90625 196.058594 64.632812 191.21875 60.4375 C 189.648438 59.066406 187.886719 57.964844 187.308594 57.964844 C 186.726562 57.964844 186.253906 56.871094 186.253906 55.542969 C 186.253906 54.210938 185.691406 52.773438 185.011719 52.355469 C 184.324219 51.933594 183.21875 50.554688 182.539062 49.28125 C 181.566406 47.472656 182.046875 46.25 184.863281 43.433594 C 193.976562 34.3125 199.601562 21.804688 194.585938 21.804688 C 193.773438 21.804688 188.96875 25.199219 183.898438 29.332031 C 175.378906 36.300781 171.414062 38 172.253906 34.328125 C 172.480469 33.382812 171.730469 33.117188 170.226562 33.589844 C 168.53125 34.132812 167.675781 33.625 167.203125 31.820312 C 166.238281 28.140625 161.21875 26.554688 158.675781 29.125 C 156.195312 31.617188 156.453125 33.269531 160.46875 40.820312 C 163.191406 45.953125 163.378906 46.988281 161.84375 48.527344 C 160.871094 49.5 160.066406 50.964844 160.066406 51.765625 C 160.066406 52.585938 159.210938 52.910156 158.140625 52.496094 C 157.070312 52.089844 156.496094 52.230469 156.855469 52.800781 C 157.210938 53.382812 154.433594 57.09375 150.6875 61.0625 C 146.933594 65.027344 143.78125 69.320312 143.675781 70.597656 C 143.578125 71.875 143.4375 73.605469 143.363281 74.457031 C 143.300781 75.292969 144.703125 76.09375 146.488281 76.230469 " fill-opacity="1" fill-rule="nonzero"/><path fill="#d9d2c5" d="M 280.929688 39.257812 C 281.652344 39.257812 282.25 39.820312 282.25 40.507812 C 282.25 41.195312 282 41.75 281.695312 41.75 C 281.394531 41.75 280.804688 41.195312 280.375 40.507812 C 279.957031 39.820312 280.207031 39.257812 280.929688 39.257812 Z M 288.992188 41.667969 C 289.617188 41.785156 290.589844 41.148438 291.152344 40.257812 C 291.921875 39.050781 292.1875 39.214844 292.207031 40.875 C 292.214844 42.109375 292.917969 43.019531 293.777344 42.910156 C 299.347656 42.1875 304.007812 45.050781 302.722656 48.417969 C 302.25 49.648438 298.777344 52.023438 295.015625 53.6875 C 291.25 55.347656 287.234375 56.714844 286.082031 56.714844 C 281.3125 56.714844 279.609375 51.167969 282.445312 44.929688 C 283.75 42.0625 285.769531 41.0625 288.992188 41.667969 Z M 284.820312 70.042969 C 286.152344 69.695312 287.234375 69.855469 287.234375 70.398438 C 287.234375 72.253906 297.832031 70.953125 301.257812 68.675781 C 303.140625 67.429688 304.6875 65.980469 304.6875 65.460938 C 304.6875 64.945312 305.6875 64.585938 306.910156 64.667969 C 308.132812 64.75 311.644531 62.320312 314.707031 59.273438 C 317.765625 56.230469 319.570312 54.160156 318.714844 54.675781 C 317.855469 55.1875 317.164062 55.015625 317.164062 54.292969 C 317.164062 53.570312 317.714844 52.972656 318.402344 52.972656 C 320.570312 52.972656 319.902344 40.773438 317.667969 39.519531 C 316.578125 38.910156 315.667969 37.902344 315.648438 37.277344 C 315.585938 35.3125 312.605469 31.757812 311.75 32.613281 C 311.292969 33.070312 310.917969 32.828125 310.917969 32.082031 C 310.917969 30.152344 303.292969 27.882812 297.972656 28.242188 C 295.5 28.410156 293.464844 28.886719 293.464844 29.292969 C 293.464844 29.707031 290.660156 29.984375 287.234375 29.910156 C 283.804688 29.839844 281 30.269531 281 30.855469 C 281 31.445312 280.472656 31.601562 279.832031 31.207031 C 278.597656 30.4375 268.535156 39.625 268.535156 41.507812 C 268.535156 42.125 269.796875 43.234375 271.339844 43.972656 C 273.667969 45.097656 273.757812 45.339844 271.886719 45.410156 C 270.652344 45.453125 269.984375 46.0625 270.421875 46.761719 C 270.847656 47.453125 271.867188 47.632812 272.671875 47.140625 C 273.511719 46.640625 273.410156 47.167969 272.429688 48.375 C 271.492188 49.53125 269.921875 50.480469 268.9375 50.480469 C 266.171875 50.480469 267.5 59.160156 270.992188 63.882812 C 274.125 68.121094 280.804688 71.09375 284.820312 70.042969 " fill-opacity="1" fill-rule="nonzero"/><path fill="#d9d2c5" d="M 65.859375 302.453125 C 65.0625 303.738281 62.359375 303.917969 61.195312 302.765625 C 59.757812 301.320312 61.535156 300.042969 64.0625 300.703125 C 65.429688 301.058594 66.230469 301.847656 65.859375 302.453125 Z M 48.320312 294.222656 C 47.929688 293.195312 47.109375 292.667969 46.492188 293.039062 C 45.875 293.425781 45.375 293.105469 45.375 292.335938 C 45.375 291.570312 44.957031 291.203125 44.4375 291.515625 C 43.921875 291.828125 42.492188 290.738281 41.261719 289.097656 C 39.964844 287.363281 39.617188 286.105469 40.429688 286.105469 C 41.207031 286.105469 41.609375 285.410156 41.324219 284.554688 C 40.601562 282.390625 46.019531 269.480469 47.914062 268.847656 C 48.761719 268.5625 49.097656 268.910156 48.664062 269.621094 C 47.839844 270.953125 57.667969 274.882812 61.839844 274.882812 C 68.042969 274.882812 65.519531 289.488281 58.582031 293.71875 C 53.945312 296.542969 49.304688 296.773438 48.320312 294.222656 Z M 74.359375 263.355469 C 73.5 263.523438 72.804688 263.148438 72.804688 262.515625 C 72.804688 261.410156 67.824219 259.917969 61.832031 259.222656 C 60.261719 259.035156 58.125 258.179688 57.089844 257.320312 C 53.1875 254.085938 37.894531 255.953125 37.894531 259.660156 C 37.894531 260.167969 36.644531 261.132812 35.117188 261.8125 C 31.949219 263.214844 28.152344 270.0625 27.171875 276.132812 C 27.003906 277.15625 26.324219 279.75 25.664062 281.890625 C 24.992188 284.023438 24.914062 286.523438 25.484375 287.433594 C 26.046875 288.355469 26.234375 289.550781 25.894531 290.09375 C 25.558594 290.652344 25.726562 291.792969 26.269531 292.652344 C 26.8125 293.507812 27.261719 294.566406 27.277344 295.007812 C 27.332031 297.214844 36.039062 307.570312 39.226562 309.210938 C 41.234375 310.253906 42.886719 310.695312 42.886719 310.199219 C 42.886719 309.703125 43.527344 309.941406 44.332031 310.738281 C 45.125 311.53125 46.109375 311.988281 46.511719 311.738281 C 46.910156 311.496094 50.894531 311.105469 55.351562 310.871094 C 63.402344 310.460938 63.5 310.40625 70.625 303.148438 C 74.5625 299.132812 77.472656 295.335938 77.089844 294.710938 C 76.703125 294.09375 76.992188 293.585938 77.714844 293.585938 C 78.445312 293.585938 78.945312 293.167969 78.839844 292.652344 C 78.730469 292.140625 79.089844 290.675781 79.644531 289.410156 C 80.304688 287.890625 80.042969 286.675781 78.910156 285.863281 C 77.546875 284.890625 77.632812 284.773438 79.347656 285.328125 C 80.597656 285.730469 81.570312 285.382812 81.625 284.507812 C 81.667969 283.675781 81.964844 281.648438 82.257812 280.023438 C 82.5625 278.390625 82.171875 276.285156 81.394531 275.347656 C 80.332031 274.0625 80.347656 273.640625 81.464844 273.640625 C 82.367188 273.640625 81.945312 272.238281 80.402344 270.070312 C 79.007812 268.105469 78.25 266.113281 78.722656 265.640625 C 79.195312 265.167969 78.601562 265.160156 77.382812 265.621094 C 75.894531 266.195312 75.3125 265.917969 75.554688 264.75 C 75.757812 263.8125 75.214844 263.1875 74.359375 263.355469 " fill-opacity="1" fill-rule="nonzero"/><path fill="#d9d2c5" d="M 173.488281 176.734375 C 171.257812 177.769531 168.300781 178.933594 166.925781 179.324219 C 164.136719 180.128906 160.066406 178.246094 160.066406 176.164062 C 160.066406 175.414062 159.085938 174.027344 157.890625 173.082031 C 156.695312 172.144531 156.265625 171.449219 156.953125 171.539062 C 160.03125 171.949219 161.320312 171.242188 161.320312 169.164062 C 161.320312 165.011719 168.238281 155.902344 173.496094 153.128906 L 178.601562 150.433594 L 179.871094 154.066406 C 180.566406 156.058594 181.730469 157.699219 182.453125 157.699219 C 183.164062 157.699219 183.753906 159.898438 183.753906 162.582031 C 183.753906 168.316406 179.753906 173.832031 173.488281 176.734375 Z M 190.628906 145.226562 C 189.050781 145.226562 187.433594 144.371094 187.039062 143.328125 C 186.335938 141.503906 181.664062 141.753906 178.148438 143.808594 C 176.15625 144.96875 173.71875 145.101562 174.390625 144.011719 C 174.726562 143.46875 173.746094 142.691406 172.210938 142.289062 C 167.167969 140.96875 150.097656 151.921875 150.097656 156.476562 C 150.097656 157.753906 149.535156 159.144531 148.835938 159.574219 C 148.140625 160 146.726562 162.351562 145.710938 164.789062 C 144.214844 168.386719 144.113281 170.761719 145.175781 177.449219 C 145.898438 181.976562 147.070312 186.039062 147.78125 186.472656 C 148.488281 186.914062 149.078125 187.769531 149.09375 188.375 C 149.113281 188.984375 151.730469 191.019531 154.90625 192.894531 C 160.726562 196.324219 167.988281 197.421875 169.425781 195.089844 C 169.851562 194.394531 171.585938 194.082031 173.265625 194.382812 C 174.953125 194.6875 176.074219 194.527344 175.761719 194.027344 C 175.453125 193.519531 178.253906 191.789062 181.996094 190.179688 C 185.726562 188.566406 188.519531 186.976562 188.191406 186.644531 C 187.863281 186.3125 189.476562 183.734375 191.78125 180.914062 C 194.085938 178.085938 196.789062 173.78125 197.800781 171.339844 C 201.664062 161.992188 197.058594 145.226562 190.628906 145.226562 " fill-opacity="1" fill-rule="nonzero"/><path fill="#d9d2c5" d="M 274.144531 316.023438 C 273.726562 316.710938 273.125 317.273438 272.824219 317.273438 C 272.519531 317.273438 272.277344 316.710938 272.277344 316.023438 C 272.277344 315.34375 272.867188 314.78125 273.597656 314.78125 C 274.320312 314.78125 274.574219 315.34375 274.144531 316.023438 Z M 274.769531 278.625 C 273.644531 277.898438 273.492188 277.410156 274.386719 277.402344 C 275.195312 277.390625 276.214844 277.933594 276.636719 278.625 C 277.597656 280.175781 277.164062 280.175781 274.769531 278.625 Z M 308.695312 277.078125 C 310.3125 276.542969 308.980469 269.898438 307.257812 269.898438 C 305.855469 269.898438 297.1875 278.230469 294.417969 282.238281 C 292.394531 285.167969 292.285156 285.1875 288.972656 283.015625 C 284.902344 280.347656 279.847656 274.773438 279.796875 272.898438 C 279.765625 272.152344 277.824219 270.496094 275.457031 269.222656 C 271.269531 266.960938 271.089844 266.960938 268.601562 269.222656 C 265.707031 271.835938 265 278.042969 267.714844 277.007812 C 268.632812 276.652344 270.171875 276.863281 271.144531 277.472656 C 272.625 278.417969 272.605469 278.605469 271.027344 278.703125 C 270 278.773438 270.839844 279.597656 272.894531 280.542969 C 274.957031 281.480469 275.902344 282.277344 275.007812 282.308594 C 274.109375 282.335938 273.699219 282.890625 274.089844 283.523438 C 274.484375 284.167969 274.242188 285.042969 273.546875 285.472656 C 271 287.042969 272.386719 289.882812 277.261719 293.113281 C 282.3125 296.453125 283.605469 298.566406 280.597656 298.566406 C 279.695312 298.566406 278.054688 300.398438 276.949219 302.625 C 271.394531 313.84375 270.089844 317.015625 269.304688 321.226562 C 268.605469 325.015625 268.839844 325.890625 270.679688 326.289062 C 273.1875 326.847656 280.722656 320.628906 287.226562 312.65625 C 292.160156 306.59375 293.613281 307.023438 297.472656 315.710938 C 299.535156 320.378906 300.304688 321.015625 303.875 321.015625 C 306.105469 321.015625 308.605469 320.335938 309.429688 319.511719 C 311.085938 317.851562 311.4375 314.023438 309.992188 313.21875 C 309.472656 312.925781 309.765625 312.871094 310.632812 313.085938 C 313.273438 313.726562 311.632812 305.453125 308.300781 301.292969 C 306.660156 299.238281 304.078125 296.96875 302.578125 296.257812 C 299.695312 294.882812 299.046875 289.84375 301.757812 289.84375 C 302.597656 289.84375 303.992188 287.882812 304.855469 285.480469 C 305.722656 283.078125 306.945312 281.113281 307.558594 281.113281 C 308.1875 281.113281 308.382812 280.3125 308.011719 279.328125 C 307.636719 278.347656 307.933594 277.328125 308.695312 277.078125 " fill-opacity="1" fill-rule="nonzero"/><path fill="#d9d2c5" d="M 301.359375 167.152344 C 300.355469 169.753906 288.800781 177.644531 285.984375 177.644531 C 284.617188 177.644531 283.492188 178.207031 283.492188 178.886719 C 283.492188 180.691406 282.011719 180.386719 278.867188 177.929688 C 276.5 176.082031 276.257812 175.144531 277.164062 171.414062 C 278.847656 164.402344 280.832031 160.191406 282.429688 160.191406 C 283.242188 160.191406 283.535156 159.816406 283.089844 159.371094 C 282.632812 158.914062 283.375 157.761719 284.742188 156.808594 C 286.890625 155.296875 287.957031 155.40625 292.972656 157.617188 C 296.132812 159.023438 299.222656 159.859375 299.835938 159.484375 C 300.449219 159.101562 300.988281 159.253906 301.042969 159.804688 C 301.097656 160.363281 301.339844 161.851562 301.578125 163.128906 C 301.820312 164.402344 301.722656 166.207031 301.359375 167.152344 Z M 317.265625 156.359375 C 317.035156 154.871094 310.167969 148.011719 307.523438 146.628906 C 306 145.832031 302.5 145.046875 299.738281 144.886719 C 296.980469 144.738281 294.722656 144.226562 294.722656 143.761719 C 294.714844 142.566406 288.75 143.515625 282.875 145.648438 C 280.125 146.636719 278.027344 148.074219 278.195312 148.835938 C 278.367188 149.59375 277.667969 150.21875 276.636719 150.21875 C 275.609375 150.21875 274.769531 150.707031 274.769531 151.316406 C 274.769531 151.921875 273.652344 152.710938 272.277344 153.066406 C 269.207031 153.871094 264.5625 163.933594 264.109375 170.746094 C 263.929688 173.464844 263.214844 175.886719 262.519531 176.117188 C 261.75 176.371094 261.652344 177.886719 262.269531 180.027344 C 263.8125 185.414062 266.046875 189.011719 267.339844 188.207031 C 268 187.804688 268.152344 188.421875 267.6875 189.625 C 267.125 191.074219 267.332031 191.476562 268.320312 190.867188 C 269.125 190.371094 269.777344 190.449219 269.777344 191.046875 C 269.777344 191.636719 271.324219 192.734375 273.207031 193.484375 C 276.660156 194.851562 283.4375 194.714844 290.347656 193.152344 C 292.410156 192.679688 296.285156 189.984375 298.972656 187.152344 C 301.660156 184.324219 303.132812 182.984375 302.25 184.1875 C 301.027344 185.851562 301.007812 186.367188 302.160156 186.367188 C 302.988281 186.367188 303.953125 185.316406 304.285156 184.019531 C 304.671875 182.558594 305.695312 181.878906 307.015625 182.226562 C 309.167969 182.789062 315.167969 178.5625 313.945312 177.339844 C 313.570312 176.964844 314.320312 174.699219 315.609375 172.296875 C 317.558594 168.648438 318.21875 162.351562 317.265625 156.359375 " fill-opacity="1" fill-rule="nonzero"/><path fill="#d9d2c5" d="M 233.554688 146.476562 C 232.902344 146.476562 232.378906 145.914062 232.378906 145.226562 C 232.378906 144.539062 233.253906 143.988281 234.324219 143.988281 C 235.394531 143.988281 235.921875 144.539062 235.492188 145.226562 C 235.074219 145.914062 234.199219 146.476562 233.554688 146.476562 Z M 232.304688 50.480469 C 233.027344 50.480469 233.628906 51.042969 233.628906 51.71875 C 233.628906 52.410156 233.378906 52.972656 233.074219 52.972656 C 232.769531 52.972656 232.179688 52.410156 231.753906 51.71875 C 231.332031 51.042969 231.582031 50.480469 232.304688 50.480469 Z M 230.457031 297.410156 C 229.449219 299.039062 229.054688 298.863281 229.054688 296.753906 C 229.054688 295.757812 229.53125 295.238281 230.121094 295.597656 C 230.699219 295.953125 230.851562 296.773438 230.457031 297.410156 Z M 224.894531 212.554688 C 224.21875 212.554688 223.652344 211.992188 223.652344 211.304688 C 223.652344 210.617188 224.21875 210.054688 224.894531 210.054688 C 225.582031 210.054688 226.144531 210.617188 226.144531 211.304688 C 226.144531 211.992188 225.582031 212.554688 224.894531 212.554688 Z M 224.125 295.390625 C 223.296875 297.550781 222.40625 297.945312 222.40625 296.148438 C 222.40625 295.507812 222.957031 294.640625 223.636719 294.222656 C 224.339844 293.785156 224.558594 294.28125 224.125 295.390625 Z M 221.109375 198.152344 C 221.59375 199.492188 221.476562 203.132812 220.851562 206.253906 C 219.867188 211.160156 219.011719 218.125 218.746094 223.457031 C 218.691406 224.589844 215.40625 225.019531 206.746094 225.019531 C 200.183594 225.019531 193.871094 225.511719 192.71875 226.117188 C 191.496094 226.753906 189.367188 226.753906 187.648438 226.097656 C 186.015625 225.484375 169.328125 225.199219 150.558594 225.457031 C 121.640625 225.859375 116.4375 225.660156 116.4375 224.152344 C 116.4375 223.0625 115.839844 222.742188 114.875 223.3125 C 113.804688 223.957031 113.84375 223.597656 115.015625 222.152344 C 115.953125 221 116.925781 217.230469 117.195312 213.769531 C 117.457031 210.3125 117.910156 205.574219 118.195312 203.234375 C 118.515625 200.699219 118.132812 198.734375 117.265625 198.382812 C 116.320312 197.992188 116.410156 197.75 117.527344 197.691406 C 118.898438 197.609375 118.9375 197.226562 117.6875 195.714844 C 116.828125 194.6875 116.625 193.851562 117.222656 193.851562 C 119.007812 193.851562 119.882812 147.773438 118.148438 144.96875 C 117.597656 144.078125 117.953125 143.816406 119.132812 144.273438 C 120.703125 144.871094 121.007812 142.871094 121.113281 131.28125 C 121.179688 123.746094 121.535156 117.273438 121.910156 116.90625 C 122.273438 116.53125 122.050781 115.234375 121.410156 114.03125 C 120.488281 112.308594 120.828125 111.65625 123.015625 110.949219 C 128.230469 109.28125 130.027344 109.113281 130.703125 110.203125 C 131.070312 110.800781 133.488281 110.988281 136.058594 110.613281 C 138.640625 110.238281 141.871094 109.882812 143.238281 109.816406 C 144.613281 109.746094 146.148438 109.140625 146.648438 108.453125 C 147.25 107.636719 147.570312 107.667969 147.585938 108.523438 C 147.605469 109.621094 163.550781 110.128906 164.746094 109.078125 C 165.132812 108.738281 169.925781 108.703125 170.351562 109.042969 C 171.414062 109.863281 176.28125 109.71875 176.28125 108.863281 C 176.28125 108.289062 176.871094 107.828125 177.601562 107.828125 C 178.324219 107.828125 178.523438 108.476562 178.03125 109.265625 C 177.476562 110.15625 177.691406 110.375 178.578125 109.816406 C 179.371094 109.328125 181.191406 109.757812 182.628906 110.761719 C 184.96875 112.398438 185.691406 112.328125 189.566406 110.039062 C 192.683594 108.203125 194.273438 107.863281 195.253906 108.84375 C 196.171875 109.773438 197.34375 109.808594 198.933594 108.960938 C 200.21875 108.273438 201.949219 108.15625 202.796875 108.703125 C 203.640625 109.253906 207.699219 109.773438 211.808594 109.863281 C 223.148438 110.113281 223.859375 110.21875 223.03125 111.566406 C 222.609375 112.253906 222.714844 112.816406 223.269531 112.816406 C 224.46875 112.808594 224.261719 124.957031 223.003906 128.101562 C 222.519531 129.316406 222.816406 131.128906 223.664062 132.15625 C 224.753906 133.460938 224.789062 134.003906 223.796875 134.003906 C 222.84375 134.003906 222.410156 137.574219 222.46875 144.914062 C 222.628906 164.101562 221.746094 193.1875 220.976562 194.472656 C 220.566406 195.160156 220.617188 196.816406 221.109375 198.152344 Z M 185.003906 231.25 C 183.628906 231.25 182.511719 231.035156 182.511719 230.777344 C 182.511719 230.507812 183.628906 230 185.003906 229.640625 C 186.378906 229.285156 187.496094 229.5 187.496094 230.125 C 187.496094 230.742188 186.378906 231.25 185.003906 231.25 Z M 118.925781 116.558594 C 119.617188 116.558594 120.175781 117.113281 120.175781 117.800781 C 120.175781 118.488281 119.617188 119.050781 118.925781 119.050781 C 118.25 119.050781 117.6875 118.488281 117.6875 117.800781 C 117.6875 117.113281 118.25 116.558594 118.925781 116.558594 Z M 119.007812 80.398438 C 119.730469 80.398438 119.980469 80.960938 119.554688 81.648438 C 119.132812 82.335938 118.535156 82.890625 118.230469 82.890625 C 117.929688 82.890625 117.6875 82.335938 117.6875 81.648438 C 117.6875 80.960938 118.273438 80.398438 119.007812 80.398438 Z M 197.28125 97.351562 C 196.324219 97.933594 196.183594 97.6875 196.84375 96.613281 C 197.628906 95.335938 198.21875 95.488281 199.53125 97.28125 C 200.863281 99.105469 200.886719 99.78125 199.65625 100.570312 C 198.796875 101.113281 197.53125 101.523438 196.851562 101.480469 C 196.164062 101.433594 196.308594 101.113281 197.164062 100.765625 C 198.023438 100.425781 198.71875 99.3125 198.71875 98.300781 C 198.71875 97.230469 198.121094 96.828125 197.28125 97.351562 Z M 110.355469 115.308594 C 108.898438 115.308594 107.714844 114.78125 107.714844 114.140625 C 107.714844 111.980469 109.902344 111.578125 111.464844 113.453125 C 112.738281 114.996094 112.5625 115.308594 110.355469 115.308594 Z M 66.492188 110.316406 C 65.769531 110.316406 65.519531 109.765625 65.945312 109.078125 C 66.367188 108.386719 66.964844 107.828125 67.269531 107.828125 C 67.570312 107.828125 67.8125 108.386719 67.8125 109.078125 C 67.8125 109.765625 67.222656 110.316406 66.492188 110.316406 Z M 361.09375 241.679688 C 360.238281 242.195312 359.542969 242.089844 359.542969 241.445312 C 359.542969 240.097656 349.585938 237.324219 348.085938 238.25 C 347.527344 238.597656 347.070312 238.332031 347.070312 237.660156 C 347.070312 236.519531 345.015625 235.847656 337.09375 234.367188 C 335.382812 234.042969 332.578125 233.515625 330.867188 233.1875 C 326.640625 232.382812 315.085938 231.019531 309.328125 230.652344 C 306.742188 230.492188 304.292969 230.027344 303.902344 229.632812 C 303.507812 229.242188 301.804688 229.4375 300.121094 230.082031 C 298.4375 230.722656 297.320312 230.820312 297.632812 230.3125 C 297.957031 229.800781 296.160156 229.3125 293.648438 229.226562 C 291.152344 229.140625 284.617188 228.667969 279.125 228.179688 C 270.8125 227.4375 249.207031 226.984375 249.207031 227.542969 C 249.207031 227.640625 247.617188 227.972656 245.671875 228.292969 C 243.402344 228.660156 242.421875 228.402344 242.941406 227.570312 C 243.375 226.847656 242.871094 226.195312 241.796875 226.105469 C 238.191406 225.820312 237.574219 225.644531 236.527344 224.597656 C 235.324219 223.394531 234.871094 210.027344 235.976562 208.1875 C 236.554688 207.214844 237.5 182.902344 237.351562 172.65625 C 237.316406 171.625 237.316406 169.4375 237.332031 167.796875 C 237.351562 166.15625 236.652344 163.941406 235.796875 162.886719 C 234.554688 161.339844 234.554688 161.144531 235.816406 161.898438 C 237.816406 163.101562 239.207031 159.699219 237.921875 156.761719 C 237.394531 155.558594 237.144531 154.019531 237.359375 153.332031 C 237.574219 152.648438 237.875 146.949219 238.027344 140.671875 C 238.191406 134.386719 238.671875 128.683594 239.109375 127.980469 C 239.539062 127.273438 239.332031 126.351562 238.636719 125.925781 C 237.304688 125.101562 237.144531 111.613281 238.457031 111.507812 C 238.886719 111.46875 245.019531 111.203125 252.09375 110.90625 C 259.152344 110.613281 265.554688 109.996094 266.304688 109.53125 C 267.074219 109.058594 267.3125 109.253906 266.859375 109.996094 C 266.410156 110.71875 266.894531 111.628906 267.910156 112.023438 C 268.9375 112.414062 269.777344 112.210938 269.777344 111.566406 C 269.777344 110.925781 275.75 110.355469 283.179688 110.300781 C 305.5 110.121094 307.847656 109.898438 307.421875 107.925781 C 307.117188 106.515625 307.402344 106.460938 308.847656 107.65625 C 310.265625 108.84375 311.804688 108.710938 316.089844 107.050781 C 321.722656 104.863281 325.882812 101.953125 325.882812 100.183594 C 325.882812 98.273438 320.296875 95.539062 314.75 94.730469 C 304.929688 93.300781 290.535156 93.539062 290 95.140625 C 289.734375 95.960938 289.027344 96.316406 288.429688 95.953125 C 287.832031 95.585938 287.652344 94.316406 288.027344 93.140625 C 288.429688 91.890625 288.277344 91.515625 287.660156 92.246094 C 285.785156 94.460938 281.867188 94.988281 277.570312 93.605469 C 275.9375 93.078125 274.761719 93.222656 274.761719 93.933594 C 274.761719 95.125 266.789062 94.722656 264.707031 93.433594 C 264.160156 93.105469 263.386719 93.355469 262.992188 93.996094 C 262.574219 94.675781 260.792969 94.757812 258.839844 94.191406 C 256.957031 93.65625 254.296875 93.613281 252.941406 94.113281 C 251.574219 94.605469 249.332031 94.820312 247.957031 94.578125 C 246.59375 94.347656 243.644531 94.003906 241.414062 93.816406 C 237.457031 93.5 237.367188 93.355469 237.234375 87.253906 C 237.164062 83.828125 236.957031 78.21875 236.789062 74.792969 C 236.617188 71.363281 237.089844 67.75 237.851562 66.757812 C 238.753906 65.585938 238.769531 65.238281 237.90625 65.757812 C 237 66.292969 236.484375 61.6875 236.289062 51.347656 C 236.019531 37.460938 235.707031 33.410156 234.210938 24.382812 C 233.933594 22.714844 232.769531 20.476562 231.617188 19.402344 C 230.46875 18.324219 229.921875 18.140625 230.40625 19 C 230.941406 19.957031 230.519531 20.554688 229.332031 20.554688 C 228.261719 20.554688 227.34375 21.257812 227.289062 22.117188 C 227.226562 22.972656 227.003906 25.082031 226.789062 26.796875 C 225.710938 35.363281 225.246094 55.140625 226.074219 57.335938 C 226.644531 58.832031 226.378906 60.828125 225.414062 62.320312 C 224.269531 64.089844 223.886719 69.148438 224.109375 79.570312 L 224.414062 94.328125 L 220.914062 93.808594 C 218.929688 93.523438 217.414062 93.882812 217.394531 94.640625 C 217.386719 95.46875 217.019531 95.417969 216.429688 94.488281 C 215.851562 93.585938 214.804688 93.417969 213.789062 94.042969 C 212.863281 94.621094 210.53125 94.640625 208.617188 94.09375 C 206.699219 93.539062 204.824219 93.410156 204.441406 93.792969 C 204.058594 94.175781 199.664062 94.355469 194.683594 94.1875 C 189.699219 94.003906 182.253906 93.890625 178.148438 93.914062 C 174.03125 93.945312 166.460938 93.945312 161.320312 93.914062 C 156.175781 93.890625 151.265625 93.945312 150.410156 94.023438 C 146.925781 94.355469 144.300781 94.308594 140.75 93.828125 C 136.570312 93.273438 131.113281 95.148438 132.128906 96.789062 C 132.488281 97.371094 132.195312 97.855469 131.472656 97.855469 C 130.738281 97.855469 130.148438 96.96875 130.148438 95.890625 C 130.148438 94.621094 129.160156 94.015625 127.339844 94.160156 C 125.804688 94.285156 123.972656 94.328125 123.292969 94.257812 C 122.507812 94.167969 122.148438 87.273438 122.335938 75.71875 C 122.828125 44.320312 122.785156 41.347656 121.773438 40.605469 C 121.230469 40.203125 120.597656 38.277344 120.375 36.3125 C 120.070312 33.699219 120.375 33 121.527344 33.714844 C 122.640625 34.402344 122.855469 34.054688 122.257812 32.5 C 121.792969 31.304688 121.417969 28.734375 121.417969 26.777344 C 121.417969 24.832031 120.6875 22.492188 119.792969 21.578125 C 118.898438 20.679688 117.792969 18.964844 117.347656 17.777344 C 115.238281 12.210938 109.875 20.554688 109.5625 29.878906 C 109.460938 32.730469 109.085938 35.589844 108.738281 36.234375 C 108.382812 36.863281 108.179688 39.070312 108.285156 41.125 C 108.382812 43.1875 108.042969 46.113281 107.515625 47.632812 C 106.972656 49.175781 107.082031 50.714844 107.757812 51.132812 C 108.535156 51.617188 108.535156 52.6875 107.757812 54.132812 C 107.097656 55.375 106.828125 56.660156 107.167969 57 C 108.375 58.203125 108.785156 62.902344 107.746094 63.542969 C 107.167969 63.902344 106.988281 65.3125 107.347656 66.675781 C 107.703125 68.035156 108.375 68.917969 108.847656 68.625 C 109.3125 68.335938 110.507812 68.59375 111.5 69.214844 C 112.964844 70.113281 112.996094 70.621094 111.695312 71.917969 C 110.402344 73.222656 109.890625 73.183594 108.972656 71.695312 C 108.019531 70.140625 107.722656 70.191406 107.015625 72.03125 C 106.554688 73.230469 106.472656 75.320312 106.828125 76.675781 C 107.1875 78.042969 106.875 79.148438 106.140625 79.148438 C 105.402344 79.148438 105.140625 79.488281 105.554688 79.90625 C 105.960938 80.320312 105.785156 82.023438 105.152344 83.695312 C 104.175781 86.238281 104.445312 86.898438 106.785156 87.84375 C 108.9375 88.710938 109.082031 88.988281 107.402344 89.050781 C 105.929688 89.105469 105.214844 90.128906 105.214844 92.203125 C 105.214844 94.605469 105.695312 95.113281 107.402344 94.496094 C 108.597656 94.070312 109.210938 94.132812 108.757812 94.640625 C 107.273438 96.28125 88.394531 97.65625 86.964844 96.21875 C 86.535156 95.792969 85.070312 96.042969 83.707031 96.773438 C 81.832031 97.78125 81.457031 97.738281 82.152344 96.605469 C 82.859375 95.46875 82.464844 95.433594 80.527344 96.476562 C 77.449219 98.121094 67.699219 99.058594 68.582031 97.621094 C 68.929688 97.058594 68.304688 96.605469 67.1875 96.605469 C 66.082031 96.605469 65.429688 97.023438 65.753906 97.542969 C 66.0625 98.058594 62.59375 98.476562 58.03125 98.476562 C 53.464844 98.476562 49.214844 98.710938 48.574219 99.007812 C 47.941406 99.292969 43.089844 99.675781 37.816406 99.855469 C 27.171875 100.21875 18.984375 103.246094 18.457031 107.003906 C 18.28125 108.273438 18.457031 108.976562 18.859375 108.574219 C 19.261719 108.175781 20.351562 108.488281 21.289062 109.265625 C 22.226562 110.039062 23.351562 110.316406 23.789062 109.890625 C 24.21875 109.453125 25.21875 109.628906 26.011719 110.285156 C 28.324219 112.199219 45.597656 112.933594 47.742188 111.191406 C 48.804688 110.335938 49.242188 110.273438 48.789062 111.050781 C 48.214844 112 51.660156 112.34375 60.070312 112.21875 C 66.730469 112.121094 72.742188 112.398438 73.429688 112.851562 C 75.097656 113.941406 85.410156 112.808594 84.679688 111.613281 C 84.355469 111.09375 86.179688 110.96875 88.730469 111.328125 C 94.5 112.140625 99.035156 112.191406 101.472656 111.488281 C 102.535156 111.175781 103.203125 111.636719 103.015625 112.550781 C 102.839844 113.433594 103.273438 115.265625 104 116.601562 C 104.984375 118.433594 104.898438 119.074219 103.703125 119.148438 C 102.453125 119.21875 102.445312 119.378906 103.660156 119.871094 C 105.703125 120.699219 105.640625 124.183594 103.507812 128.289062 C 102.105469 130.996094 102.078125 132.40625 103.359375 136.128906 C 104.238281 138.699219 104.527344 142.066406 104.019531 143.886719 C 103.519531 145.65625 103.195312 158.039062 103.292969 171.40625 C 103.429688 189.601562 103.054688 196.421875 101.820312 198.527344 C 100.839844 200.1875 100.6875 201.332031 101.445312 201.332031 C 102.152344 201.332031 102.722656 202.171875 102.722656 203.199219 C 102.722656 204.226562 102.304688 205.074219 101.785156 205.074219 C 101.273438 205.074219 100.855469 209.617188 100.855469 215.160156 C 100.867188 220.707031 100.328125 225.582031 99.667969 225.984375 C 98.425781 226.753906 90.027344 227.511719 83.175781 227.464844 C 81.007812 227.457031 78.867188 228.027344 78.417969 228.742188 C 77.984375 229.457031 76.957031 229.625 76.144531 229.117188 C 74.042969 227.777344 67.902344 227.609375 67.132812 228.855469 C 66.777344 229.4375 65.144531 229.402344 63.5 228.777344 C 61.855469 228.152344 59.039062 227.910156 57.222656 228.242188 C 55.402344 228.570312 48.492188 229.125 41.859375 229.472656 C 35.226562 229.820312 28.949219 230.171875 27.921875 230.257812 C 26.898438 230.339844 25.34375 231.304688 24.476562 232.382812 C 23.609375 233.472656 22.976562 233.804688 23.066406 233.117188 C 23.433594 230.339844 22.839844 229.777344 21.074219 231.242188 C 20.054688 232.089844 19.53125 233.277344 19.90625 233.882812 C 20.28125 234.492188 19.921875 234.992188 19.117188 234.992188 C 15.886719 234.992188 20.636719 238.488281 24.96875 239.304688 C 28.4375 239.957031 29.769531 239.640625 31.117188 237.875 C 32.617188 235.894531 32.832031 235.867188 32.871094 237.652344 C 32.894531 239.117188 34.535156 239.9375 38.625 240.554688 C 43.339844 241.257812 44.644531 241.007812 46.0625 239.132812 C 47.082031 237.796875 47.804688 237.5 47.832031 238.417969 C 47.875 240.359375 51.609375 240.507812 51.609375 238.578125 C 51.609375 237.660156 52.3125 237.769531 53.652344 238.875 C 55 240 59.410156 240.605469 66.742188 240.6875 C 72.8125 240.75 78.082031 241.097656 78.445312 241.464844 C 78.8125 241.828125 82.035156 241.457031 85.617188 240.632812 C 91.902344 239.195312 100.382812 240.105469 100.070312 242.195312 C 99.675781 244.792969 100.394531 246.257812 101.667969 245.472656 C 102.570312 244.910156 102.765625 245.125 102.207031 246.035156 C 101.714844 246.839844 100.785156 247.179688 100.140625 246.785156 C 99.507812 246.382812 98.984375 247.167969 98.984375 248.527344 C 98.984375 249.882812 98.640625 251.882812 98.222656 252.964844 C 97.730469 254.257812 98.160156 254.9375 99.472656 254.9375 C 100.570312 254.9375 101.472656 255.535156 101.472656 256.257812 C 101.472656 256.980469 100.957031 257.257812 100.3125 256.863281 C 97.605469 255.1875 96.578125 261.230469 96.535156 278.972656 C 96.507812 291.46875 96.652344 292.632812 98.347656 293.847656 C 99.027344 294.328125 99.597656 295.726562 99.597656 296.960938 C 99.597656 298.191406 100.285156 299.058594 101.125 298.898438 C 102.027344 298.722656 102.328125 299.390625 101.882812 300.566406 C 101.300781 302.078125 101.820312 302.433594 104.105469 302.113281 C 105.75 301.882812 106.898438 301.191406 106.667969 300.578125 C 106.4375 299.972656 106.769531 299.132812 107.402344 298.714844 C 110.425781 296.703125 112.695312 281.417969 113.097656 260.355469 C 113.222656 254.078125 113.742188 249.203125 114.257812 249.515625 C 115.25 250.132812 115.585938 248.417969 115.273438 244.304688 C 115 240.6875 121.460938 238.6875 130.773438 239.5 C 144.507812 240.695312 160.675781 240.832031 162.800781 239.777344 C 164.050781 239.152344 165.230469 239.238281 165.691406 239.992188 C 166.167969 240.757812 167.238281 240.832031 168.433594 240.152344 C 169.515625 239.554688 171.445312 239.328125 172.71875 239.660156 C 174.046875 240.007812 175.03125 239.617188 175.03125 238.722656 C 175.03125 237.5 175.425781 237.5 176.90625 238.734375 C 178.015625 239.660156 180.300781 239.984375 182.511719 239.542969 C 184.566406 239.132812 186.253906 239.296875 186.253906 239.910156 C 186.253906 240.890625 189.84375 241.214844 199.34375 241.105469 C 208.816406 240.992188 212.429688 240.535156 212.429688 239.464844 C 212.429688 238.785156 213.101562 238.902344 213.933594 239.730469 C 214.753906 240.554688 216.851562 241.230469 218.601562 241.242188 C 220.40625 241.257812 221.171875 241.660156 220.386719 242.179688 C 219.394531 242.820312 219.128906 250.125 219.484375 266.785156 C 220.121094 296.910156 219.976562 295.792969 223.652344 298.613281 C 225.421875 299.980469 226.027344 301.023438 225.066406 301.039062 C 223.957031 301.058594 223.601562 301.972656 224.039062 303.660156 C 224.527344 305.511719 224.226562 306.0625 223.003906 305.597656 C 221.664062 305.078125 221.546875 305.535156 222.496094 307.675781 C 223.15625 309.183594 224.03125 311.398438 224.441406 312.59375 C 224.851562 313.796875 225.726562 314.78125 226.378906 314.78125 C 227.03125 314.78125 227.207031 315.898438 226.769531 317.273438 C 226.332031 318.648438 226.539062 319.765625 227.226562 319.765625 C 227.914062 319.765625 228.824219 320.886719 229.261719 322.265625 L 229.261719 322.253906 C 230.109375 324.917969 234.171875 325.648438 235.5625 323.398438 C 237.109375 320.898438 237.53125 305.882812 236.101562 304.167969 C 235.074219 302.917969 235.289062 302.195312 236.984375 301.203125 C 238.554688 300.292969 238.707031 299.882812 237.464844 299.855469 C 236.503906 299.835938 236.011719 299.507812 236.386719 299.132812 C 236.769531 298.753906 236.628906 296.445312 236.074219 293.996094 C 235.519531 291.542969 235.484375 288.398438 236.003906 287.007812 C 236.519531 285.613281 236.261719 282.496094 235.429688 280.085938 C 234.511719 277.417969 234.316406 274.347656 234.921875 272.222656 C 235.464844 270.3125 235.464844 265.5 234.921875 261.535156 C 234.359375 257.453125 234.40625 254.132812 235.027344 253.894531 C 235.636719 253.667969 235.835938 253 235.476562 252.410156 C 235.109375 251.828125 235.164062 249.179688 235.589844 246.515625 L 236.359375 241.695312 L 249.644531 241.964844 C 256.949219 242.113281 265.554688 242.5625 268.789062 242.953125 C 272.109375 243.355469 274.976562 243.140625 275.402344 242.445312 C 275.882812 241.660156 277.152344 241.75 278.890625 242.695312 C 280.429688 243.535156 288.011719 244.320312 296.304688 244.515625 C 304.375 244.707031 311.648438 245.277344 312.472656 245.777344 C 313.292969 246.285156 315.945312 246.597656 318.367188 246.472656 C 320.785156 246.339844 328.523438 246.203125 335.578125 246.160156 C 342.625 246.125 348.148438 245.695312 347.84375 245.214844 C 347.546875 244.730469 349.949219 244.527344 353.183594 244.757812 C 357.65625 245.070312 359.488281 244.644531 360.863281 242.953125 C 361.96875 241.589844 362.066406 241.097656 361.09375 241.679688 " fill-opacity="1" fill-rule="nonzero"/><path fill="#d9d2c5" d="M 34.191406 194.824219 C 31.289062 197.171875 26.449219 206.921875 27.609375 208.082031 C 28.886719 209.359375 30.347656 208.875 32.910156 206.3125 C 34.28125 204.945312 35.402344 204.097656 35.402344 204.449219 C 35.402344 204.789062 36.464844 204.089844 37.769531 202.886719 C 39.074219 201.691406 42.152344 199.03125 44.625 196.976562 C 49.492188 192.941406 50.207031 191.359375 47.171875 191.359375 C 46.089844 191.359375 45.597656 190.753906 46.0625 190 C 46.664062 189.03125 47.289062 189.03125 48.25 189.992188 C 49.214844 190.957031 50.359375 190.628906 52.269531 188.832031 C 54.011719 187.199219 54.984375 186.875 55.074219 187.902344 C 55.195312 189.457031 56.171875 193.867188 56.644531 195.101562 C 56.777344 195.4375 56.820312 196.152344 56.734375 196.6875 C 56.304688 199.269531 60.664062 204.941406 63.9375 206.082031 C 69.964844 208.1875 72.125 205.671875 71.171875 197.644531 C 70.742188 194.039062 69.777344 190.351562 69.027344 189.449219 C 68.277344 188.546875 67.519531 186.5 67.339844 184.902344 C 67.152344 183.316406 66.035156 180.164062 64.859375 177.902344 C 62.714844 173.804688 62.722656 173.789062 67.207031 166.394531 C 69.679688 162.332031 72.242188 158.664062 72.890625 158.261719 C 74.769531 157.101562 79.035156 148.085938 79.035156 145.28125 C 79.035156 141.863281 75.390625 142.011719 72.054688 145.566406 C 70.617188 147.09375 66.492188 151.898438 62.886719 156.234375 L 56.332031 164.136719 L 52.046875 157.761719 C 49.679688 154.253906 47.324219 151.65625 46.796875 151.976562 C 46.261719 152.308594 44.859375 150.925781 43.660156 148.898438 C 42.261719 146.53125 40.527344 145.261719 38.761719 145.328125 C 37.253906 145.378906 36.726562 145.710938 37.582031 146.058594 C 39.777344 146.941406 39.53125 150.21875 37.273438 150.21875 C 35.214844 150.21875 34.699219 152.253906 36.582031 152.914062 C 38.179688 153.476562 49.152344 175.144531 47.832031 175.144531 C 47.261719 175.144531 46.457031 176.128906 46.054688 177.332031 C 45.65625 178.53125 43.089844 181.949219 40.359375 184.921875 C 37.628906 187.894531 35.714844 190.859375 36.117188 191.503906 C 36.511719 192.144531 35.648438 193.636719 34.191406 194.824219 " fill-opacity="1" fill-rule="nonzero"/><g clip-path="url(#d41e0d420f)"><path fill="#d9d2c5" d="M 20.371094 337 C 20.066406 337 19.480469 336.4375 19.050781 335.75 C 18.628906 335.070312 18.878906 334.511719 19.601562 334.511719 C 20.328125 334.511719 20.921875 335.070312 20.921875 335.75 C 20.921875 336.4375 20.675781 337 20.371094 337 Z M 370.3125 8.308594 C 364.363281 9.03125 357.203125 11.761719 355.898438 13.820312 C 355.339844 14.691406 354.355469 15.074219 353.710938 14.683594 C 353.070312 14.285156 352.535156 14.414062 352.515625 14.96875 C 352.507812 15.523438 349.703125 17.632812 346.285156 19.65625 C 342.875 21.683594 339.757812 24.359375 339.367188 25.601562 C 338.972656 26.84375 338.078125 27.492188 337.375 27.066406 C 335.953125 26.191406 330.6875 28.601562 327.242188 31.699219 C 326.007812 32.816406 322.9375 34.777344 320.414062 36.066406 C 317.890625 37.359375 314.0625 40.234375 311.910156 42.46875 C 309.761719 44.699219 307.074219 46.523438 305.957031 46.523438 C 304.839844 46.523438 303.921875 47.019531 303.921875 47.632812 C 303.921875 48.253906 299.855469 51.289062 294.886719 54.386719 C 289.914062 57.484375 284.4375 61.246094 282.726562 62.734375 C 281.011719 64.21875 278.074219 66.351562 276.179688 67.464844 C 274.296875 68.582031 272.753906 69.941406 272.753906 70.476562 C 272.753906 71.011719 271.914062 71.449219 270.886719 71.449219 C 269.863281 71.449219 269.011719 72.039062 269.011719 72.761719 C 269.011719 73.484375 267.191406 74.941406 264.96875 75.996094 C 257.074219 79.722656 255.296875 80.777344 255.296875 81.777344 C 255.296875 82.734375 252.359375 85.699219 246.78125 90.359375 C 245.414062 91.511719 243.976562 92.125 243.59375 91.742188 C 243.207031 91.359375 242.539062 91.964844 242.113281 93.089844 C 241.671875 94.214844 240.808594 95.144531 240.183594 95.144531 C 239.558594 95.144531 237.164062 96.964844 234.851562 99.1875 C 232.539062 101.421875 228.320312 104.929688 225.460938 106.980469 C 222.613281 109.035156 218.65625 112.214844 216.675781 114.027344 C 214.703125 115.847656 212.675781 116.964844 212.175781 116.519531 C 211.675781 116.074219 211.601562 116.304688 212.015625 117.027344 C 212.933594 118.652344 207.070312 124.375 203.246094 125.589844 C 201.703125 126.082031 200.441406 126.964844 200.441406 127.550781 C 200.441406 128.152344 199.445312 128.957031 198.222656 129.339844 C 195.738281 130.125 179.257812 145.132812 179.257812 146.605469 C 179.257812 147.917969 171.417969 154.902344 169.890625 154.945312 C 169.195312 154.960938 167.507812 156.480469 166.148438 158.320312 C 164.785156 160.148438 162.945312 162.257812 162.054688 162.988281 C 161.160156 163.730469 158.933594 165.730469 157.113281 167.445312 C 155.285156 169.15625 153.367188 170.433594 152.855469 170.265625 C 152.339844 170.101562 152.242188 170.808594 152.625 171.828125 C 153.015625 172.847656 152.804688 173.683594 152.144531 173.683594 C 151.484375 173.683594 147.457031 177.050781 143.203125 181.15625 C 138.945312 185.273438 134.972656 188.640625 134.375 188.640625 C 133.785156 188.640625 132.9375 189.765625 132.5 191.140625 C 132.070312 192.503906 130.910156 193.628906 129.929688 193.628906 C 128.945312 193.628906 128.144531 194.21875 128.144531 194.953125 C 128.144531 195.675781 127.632812 195.960938 127.027344 195.578125 C 125.964844 194.925781 124.160156 197.765625 123.890625 200.488281 C 123.832031 201.175781 123.214844 201.980469 122.527344 202.273438 C 121.839844 202.570312 120.207031 204.183594 118.886719 205.863281 C 115.101562 210.671875 110.894531 214.613281 110.234375 213.960938 C 109.910156 213.628906 108.625 214.953125 107.386719 216.898438 C 106.144531 218.84375 104.421875 220.878906 103.546875 221.433594 C 102.671875 221.976562 101.957031 222.984375 101.957031 223.675781 C 101.957031 224.363281 98.546875 228.324219 94.367188 232.484375 C 89.304688 237.539062 86.976562 240.769531 87.359375 242.234375 C 87.761719 243.78125 87.332031 244.28125 85.902344 243.921875 C 84.621094 243.601562 82.75 245.144531 80.777344 248.136719 C 79.074219 250.726562 76.691406 253.753906 75.484375 254.859375 C 74.269531 255.976562 73.289062 257.441406 73.289062 258.128906 C 73.289062 258.816406 71.039062 261.554688 68.296875 264.214844 C 65.558594 266.878906 63.316406 269.789062 63.316406 270.6875 C 63.316406 271.582031 62.753906 271.976562 62.0625 271.546875 C 61.378906 271.128906 60.816406 271.429688 60.816406 272.226562 C 60.816406 273.03125 59.414062 274.789062 57.699219 276.136719 C 55.984375 277.484375 54.585938 279.296875 54.585938 280.164062 C 54.585938 281.03125 52.878906 283.25 50.800781 285.101562 C 48.71875 286.957031 47.316406 288.957031 47.675781 289.546875 C 48.039062 290.125 47.460938 290.949219 46.398438 291.359375 C 45.324219 291.769531 44.78125 292.625 45.175781 293.269531 C 45.566406 293.910156 44.773438 294.789062 43.40625 295.226562 C 42.039062 295.652344 41.046875 296.679688 41.207031 297.492188 C 41.363281 298.304688 40.789062 298.832031 39.933594 298.664062 C 39.074219 298.492188 38.378906 299.375 38.378906 300.617188 C 38.378906 302.402344 32.449219 310.703125 28.433594 314.5625 C 28.074219 314.902344 26.691406 317.324219 25.363281 319.929688 C 24.03125 322.535156 21.726562 325.992188 20.238281 327.597656 C 15.675781 332.523438 12.191406 337.902344 12.191406 340.035156 C 12.191406 341.148438 11.40625 342.363281 10.449219 342.730469 C 9.488281 343.105469 8.371094 344.347656 7.96875 345.5 C 7.570312 346.652344 6.113281 349.273438 4.746094 351.335938 C -0.226562 358.792969 -0.773438 360.472656 0.746094 363.804688 C 1.53125 365.515625 2.925781 366.917969 3.847656 366.917969 C 5.691406 366.917969 10.953125 361.382812 10.953125 359.425781 C 10.953125 358.75 11.515625 358.195312 12.191406 358.195312 C 12.878906 358.195312 13.441406 357.640625 13.441406 356.960938 C 13.441406 356.285156 14.246094 354.742188 15.238281 353.535156 C 21.316406 346.082031 27.960938 337.640625 29.019531 336 C 31.296875 332.492188 35.207031 327.769531 39.503906 323.3125 C 41.835938 320.902344 44.359375 317.464844 45.109375 315.679688 C 45.863281 313.882812 48.289062 310.902344 50.503906 309.046875 C 52.71875 307.179688 54.394531 305.277344 54.246094 304.8125 C 54.09375 304.339844 55.511719 301.945312 57.394531 299.484375 C 59.28125 297.019531 60.816406 294.351562 60.816406 293.554688 C 60.816406 292.769531 61.566406 292.117188 62.476562 292.117188 C 63.386719 292.117188 64.914062 290.574219 65.859375 288.6875 C 68.359375 283.734375 82.484375 268.433594 84.554688 268.433594 C 85.046875 268.433594 86.191406 266.636719 87.101562 264.449219 C 88.5625 260.914062 96.421875 252.226562 98.160156 252.214844 C 99.851562 252.214844 107.125 239.808594 106.257812 238.414062 C 105.636719 237.40625 105.832031 237.199219 106.820312 237.808594 C 108.929688 239.109375 126.910156 220.058594 125.949219 217.539062 C 125.484375 216.34375 125.730469 215.976562 126.625 216.53125 C 128.671875 217.789062 132.828125 214.800781 134.445312 210.917969 C 135.203125 209.066406 137.464844 206.878906 139.464844 206.050781 C 141.464844 205.230469 143.097656 204.03125 143.097656 203.40625 C 143.097656 202.773438 145.347656 199.925781 148.089844 197.066406 C 150.828125 194.210938 153.070312 191.460938 153.070312 190.945312 C 153.070312 190.425781 154.894531 189.121094 157.125 188.042969 C 159.355469 186.960938 162.578125 184.097656 164.292969 181.6875 C 166.007812 179.265625 168.730469 176.746094 170.339844 176.097656 C 171.945312 175.433594 173.550781 173.785156 173.910156 172.417969 C 174.265625 171.058594 175.015625 169.945312 175.578125 169.945312 C 176.132812 169.945312 179.472656 167.140625 183 163.714844 C 186.515625 160.285156 191.308594 156.007812 193.660156 154.222656 C 196.007812 152.425781 197.613281 150.453125 197.230469 149.828125 C 196.835938 149.195312 197.058594 148.839844 197.710938 149.027344 C 198.910156 149.375 205.71875 144.375 211.433594 138.957031 C 213.140625 137.347656 216.273438 135.0625 218.398438 133.894531 C 220.523438 132.714844 222.78125 130.617188 223.414062 129.222656 C 224.890625 125.964844 232.328125 120.839844 234.042969 121.902344 C 235.21875 122.632812 235.90625 121.046875 235.503906 118.519531 C 235.421875 118 235.773438 117.722656 236.289062 117.894531 C 236.808594 118.0625 238.433594 117.082031 239.90625 115.714844 C 246.503906 109.5625 248.851562 107.609375 249.621094 107.609375 C 250.066406 107.609375 251.808594 106.125 253.492188 104.304688 C 255.175781 102.492188 256.546875 101.3125 256.546875 101.6875 C 256.546875 102.0625 258.359375 100.679688 260.574219 98.605469 C 262.789062 96.535156 267.46875 93.019531 270.976562 90.777344 C 274.476562 88.535156 278.808594 85.234375 280.601562 83.4375 C 282.394531 81.644531 284.59375 80.179688 285.484375 80.179688 C 286.367188 80.179688 288.691406 78.492188 290.625 76.441406 C 292.574219 74.386719 294.851562 72.699219 295.695312 72.699219 C 296.546875 72.699219 298.457031 71.296875 299.949219 69.582031 C 301.441406 67.867188 303.257812 66.46875 303.992188 66.46875 C 304.714844 66.46875 304.910156 65.761719 304.421875 64.902344 C 303.929688 64.046875 303.964844 63.746094 304.5 64.234375 C 305.421875 65.058594 312.492188 62.117188 313.894531 60.339844 C 315.480469 58.324219 325 51.503906 326.230469 51.503906 C 326.992188 51.503906 327.605469 50.914062 327.605469 50.183594 C 327.605469 49.457031 328.089844 49.152344 328.667969 49.523438 C 329.25 49.878906 330.910156 49.066406 332.355469 47.726562 C 333.804688 46.378906 335.578125 45.269531 336.304688 45.269531 C 337.742188 45.269531 342.238281 42.886719 344.554688 40.90625 C 345.359375 40.226562 347.792969 38.261719 349.980469 36.546875 C 352.167969 34.832031 355.105469 32.207031 356.515625 30.71875 C 357.917969 29.21875 360.542969 27.351562 362.355469 26.558594 C 366.980469 24.53125 374.992188 14.566406 374.992188 10.84375 C 374.992188 7.996094 374.605469 7.792969 370.3125 8.308594 " fill-opacity="1" fill-rule="nonzero"/></g><path fill="#d9d2c5" d="M 146.488281 76.230469 C 150.523438 76.542969 158.03125 72.179688 156.828125 70.210938 C 156.292969 69.355469 156.496094 69.140625 157.355469 69.660156 C 158.148438 70.148438 161.308594 68.054688 164.628906 64.820312 L 170.511719 59.105469 L 173.523438 62.113281 C 175.171875 63.765625 176.90625 67.015625 177.371094 69.335938 C 177.996094 72.480469 179.308594 74.09375 182.539062 75.71875 C 184.925781 76.925781 187.835938 77.902344 189.011719 77.90625 C 194.378906 77.90625 196.058594 64.632812 191.21875 60.4375 C 189.648438 59.066406 187.886719 57.964844 187.308594 57.964844 C 186.726562 57.964844 186.253906 56.871094 186.253906 55.542969 C 186.253906 54.210938 185.691406 52.773438 185.011719 52.355469 C 184.324219 51.933594 183.21875 50.554688 182.539062 49.28125 C 181.566406 47.472656 182.046875 46.25 184.863281 43.433594 C 193.976562 34.3125 199.601562 21.804688 194.585938 21.804688 C 193.773438 21.804688 188.96875 25.199219 183.898438 29.332031 C 175.378906 36.300781 171.414062 38 172.253906 34.328125 C 172.480469 33.382812 171.730469 33.117188 170.226562 33.589844 C 168.53125 34.132812 167.675781 33.625 167.203125 31.820312 C 166.238281 28.140625 161.21875 26.554688 158.675781 29.125 C 156.195312 31.617188 156.453125 33.269531 160.46875 40.820312 C 163.191406 45.953125 163.378906 46.988281 161.84375 48.527344 C 160.871094 49.5 160.066406 50.964844 160.066406 51.765625 C 160.066406 52.585938 159.210938 52.910156 158.140625 52.496094 C 157.070312 52.089844 156.496094 52.230469 156.855469 52.800781 C 157.210938 53.382812 154.433594 57.09375 150.6875 61.0625 C 146.933594 65.027344 143.78125 69.320312 143.675781 70.597656 C 143.578125 71.875 143.4375 73.605469 143.363281 74.457031 C 143.300781 75.292969 144.703125 76.09375 146.488281 76.230469 " fill-opacity="1" fill-rule="nonzero"/><path fill="#d9d2c5" d="M 280.929688 39.257812 C 281.652344 39.257812 282.25 39.820312 282.25 40.507812 C 282.25 41.195312 282 41.75 281.695312 41.75 C 281.394531 41.75 280.804688 41.195312 280.375 40.507812 C 279.957031 39.820312 280.207031 39.257812 280.929688 39.257812 Z M 288.992188 41.667969 C 289.617188 41.785156 290.589844 41.148438 291.152344 40.257812 C 291.921875 39.050781 292.1875 39.214844 292.207031 40.875 C 292.214844 42.109375 292.917969 43.019531 293.777344 42.910156 C 299.347656 42.1875 304.007812 45.050781 302.722656 48.417969 C 302.25 49.648438 298.777344 52.023438 295.015625 53.6875 C 291.25 55.347656 287.234375 56.714844 286.082031 56.714844 C 281.3125 56.714844 279.609375 51.167969 282.445312 44.929688 C 283.75 42.0625 285.769531 41.0625 288.992188 41.667969 Z M 284.820312 70.042969 C 286.152344 69.695312 287.234375 69.855469 287.234375 70.398438 C 287.234375 72.253906 297.832031 70.953125 301.257812 68.675781 C 303.140625 67.429688 304.6875 65.980469 304.6875 65.460938 C 304.6875 64.945312 305.6875 64.585938 306.910156 64.667969 C 308.132812 64.75 311.644531 62.320312 314.707031 59.273438 C 317.765625 56.230469 319.570312 54.160156 318.714844 54.675781 C 317.855469 55.1875 317.164062 55.015625 317.164062 54.292969 C 317.164062 53.570312 317.714844 52.972656 318.402344 52.972656 C 320.570312 52.972656 319.902344 40.773438 317.667969 39.519531 C 316.578125 38.910156 315.667969 37.902344 315.648438 37.277344 C 315.585938 35.3125 312.605469 31.757812 311.75 32.613281 C 311.292969 33.070312 310.917969 32.828125 310.917969 32.082031 C 310.917969 30.152344 303.292969 27.882812 297.972656 28.242188 C 295.5 28.410156 293.464844 28.886719 293.464844 29.292969 C 293.464844 29.707031 290.660156 29.984375 287.234375 29.910156 C 283.804688 29.839844 281 30.269531 281 30.855469 C 281 31.445312 280.472656 31.601562 279.832031 31.207031 C 278.597656 30.4375 268.535156 39.625 268.535156 41.507812 C 268.535156 42.125 269.796875 43.234375 271.339844 43.972656 C 273.667969 45.097656 273.757812 45.339844 271.886719 45.410156 C 270.652344 45.453125 269.984375 46.0625 270.421875 46.761719 C 270.847656 47.453125 271.867188 47.632812 272.671875 47.140625 C 273.511719 46.640625 273.410156 47.167969 272.429688 48.375 C 271.492188 49.53125 269.921875 50.480469 268.9375 50.480469 C 266.171875 50.480469 267.5 59.160156 270.992188 63.882812 C 274.125 68.121094 280.804688 71.09375 284.820312 70.042969 " fill-opacity="1" fill-rule="nonzero"/><path fill="#d9d2c5" d="M 65.859375 302.453125 C 65.0625 303.738281 62.359375 303.917969 61.195312 302.765625 C 59.757812 301.320312 61.535156 300.042969 64.0625 300.703125 C 65.429688 301.058594 66.230469 301.847656 65.859375 302.453125 Z M 48.320312 294.222656 C 47.929688 293.195312 47.109375 292.667969 46.492188 293.039062 C 45.875 293.425781 45.375 293.105469 45.375 292.335938 C 45.375 291.570312 44.957031 291.203125 44.4375 291.515625 C 43.921875 291.828125 42.492188 290.738281 41.261719 289.097656 C 39.964844 287.363281 39.617188 286.105469 40.429688 286.105469 C 41.207031 286.105469 41.609375 285.410156 41.324219 284.554688 C 40.601562 282.390625 46.019531 269.480469 47.914062 268.847656 C 48.761719 268.5625 49.097656 268.910156 48.664062 269.621094 C 47.839844 270.953125 57.667969 274.882812 61.839844 274.882812 C 68.042969 274.882812 65.519531 289.488281 58.582031 293.71875 C 53.945312 296.542969 49.304688 296.773438 48.320312 294.222656 Z M 74.359375 263.355469 C 73.5 263.523438 72.804688 263.148438 72.804688 262.515625 C 72.804688 261.410156 67.824219 259.917969 61.832031 259.222656 C 60.261719 259.035156 58.125 258.179688 57.089844 257.320312 C 53.1875 254.085938 37.894531 255.953125 37.894531 259.660156 C 37.894531 260.167969 36.644531 261.132812 35.117188 261.8125 C 31.949219 263.214844 28.152344 270.0625 27.171875 276.132812 C 27.003906 277.15625 26.324219 279.75 25.664062 281.890625 C 24.992188 284.023438 24.914062 286.523438 25.484375 287.433594 C 26.046875 288.355469 26.234375 289.550781 25.894531 290.09375 C 25.558594 290.652344 25.726562 291.792969 26.269531 292.652344 C 26.8125 293.507812 27.261719 294.566406 27.277344 295.007812 C 27.332031 297.214844 36.039062 307.570312 39.226562 309.210938 C 41.234375 310.253906 42.886719 310.695312 42.886719 310.199219 C 42.886719 309.703125 43.527344 309.941406 44.332031 310.738281 C 45.125 311.53125 46.109375 311.988281 46.511719 311.738281 C 46.910156 311.496094 50.894531 311.105469 55.351562 310.871094 C 63.402344 310.460938 63.5 310.40625 70.625 303.148438 C 74.5625 299.132812 77.472656 295.335938 77.089844 294.710938 C 76.703125 294.09375 76.992188 293.585938 77.714844 293.585938 C 78.445312 293.585938 78.945312 293.167969 78.839844 292.652344 C 78.730469 292.140625 79.089844 290.675781 79.644531 289.410156 C 80.304688 287.890625 80.042969 286.675781 78.910156 285.863281 C 77.546875 284.890625 77.632812 284.773438 79.347656 285.328125 C 80.597656 285.730469 81.570312 285.382812 81.625 284.507812 C 81.667969 283.675781 81.964844 281.648438 82.257812 280.023438 C 82.5625 278.390625 82.171875 276.285156 81.394531 275.347656 C 80.332031 274.0625 80.347656 273.640625 81.464844 273.640625 C 82.367188 273.640625 81.945312 272.238281 80.402344 270.070312 C 79.007812 268.105469 78.25 266.113281 78.722656 265.640625 C 79.195312 265.167969 78.601562 265.160156 77.382812 265.621094 C 75.894531 266.195312 75.3125 265.917969 75.554688 264.75 C 75.757812 263.8125 75.214844 263.1875 74.359375 263.355469 " fill-opacity="1" fill-rule="nonzero"/><path fill="#d9d2c5" d="M 173.488281 176.734375 C 171.257812 177.769531 168.300781 178.933594 166.925781 179.324219 C 164.136719 180.128906 160.066406 178.246094 160.066406 176.164062 C 160.066406 175.414062 159.085938 174.027344 157.890625 173.082031 C 156.695312 172.144531 156.265625 171.449219 156.953125 171.539062 C 160.03125 171.949219 161.320312 171.242188 161.320312 169.164062 C 161.320312 165.011719 168.238281 155.902344 173.496094 153.128906 L 178.601562 150.433594 L 179.871094 154.066406 C 180.566406 156.058594 181.730469 157.699219 182.453125 157.699219 C 183.164062 157.699219 183.753906 159.898438 183.753906 162.582031 C 183.753906 168.316406 179.753906 173.832031 173.488281 176.734375 Z M 190.628906 145.226562 C 189.050781 145.226562 187.433594 144.371094 187.039062 143.328125 C 186.335938 141.503906 181.664062 141.753906 178.148438 143.808594 C 176.15625 144.96875 173.71875 145.101562 174.390625 144.011719 C 174.726562 143.46875 173.746094 142.691406 172.210938 142.289062 C 167.167969 140.96875 150.097656 151.921875 150.097656 156.476562 C 150.097656 157.753906 149.535156 159.144531 148.835938 159.574219 C 148.140625 160 146.726562 162.351562 145.710938 164.789062 C 144.214844 168.386719 144.113281 170.761719 145.175781 177.449219 C 145.898438 181.976562 147.070312 186.039062 147.78125 186.472656 C 148.488281 186.914062 149.078125 187.769531 149.09375 188.375 C 149.113281 188.984375 151.730469 191.019531 154.90625 192.894531 C 160.726562 196.324219 167.988281 197.421875 169.425781 195.089844 C 169.851562 194.394531 171.585938 194.082031 173.265625 194.382812 C 174.953125 194.6875 176.074219 194.527344 175.761719 194.027344 C 175.453125 193.519531 178.253906 191.789062 181.996094 190.179688 C 185.726562 188.566406 188.519531 186.976562 188.191406 186.644531 C 187.863281 186.3125 189.476562 183.734375 191.78125 180.914062 C 194.085938 178.085938 196.789062 173.78125 197.800781 171.339844 C 201.664062 161.992188 197.058594 145.226562 190.628906 145.226562 " fill-opacity="1" fill-rule="nonzero"/><path fill="#d9d2c5" d="M 274.144531 316.023438 C 273.726562 316.710938 273.125 317.273438 272.824219 317.273438 C 272.519531 317.273438 272.277344 316.710938 272.277344 316.023438 C 272.277344 315.34375 272.867188 314.78125 273.597656 314.78125 C 274.320312 314.78125 274.574219 315.34375 274.144531 316.023438 Z M 274.769531 278.625 C 273.644531 277.898438 273.492188 277.410156 274.386719 277.402344 C 275.195312 277.390625 276.214844 277.933594 276.636719 278.625 C 277.597656 280.175781 277.164062 280.175781 274.769531 278.625 Z M 308.695312 277.078125 C 310.3125 276.542969 308.980469 269.898438 307.257812 269.898438 C 305.855469 269.898438 297.1875 278.230469 294.417969 282.238281 C 292.394531 285.167969 292.285156 285.1875 288.972656 283.015625 C 284.902344 280.347656 279.847656 274.773438 279.796875 272.898438 C 279.765625 272.152344 277.824219 270.496094 275.457031 269.222656 C 271.269531 266.960938 271.089844 266.960938 268.601562 269.222656 C 265.707031 271.835938 265 278.042969 267.714844 277.007812 C 268.632812 276.652344 270.171875 276.863281 271.144531 277.472656 C 272.625 278.417969 272.605469 278.605469 271.027344 278.703125 C 270 278.773438 270.839844 279.597656 272.894531 280.542969 C 274.957031 281.480469 275.902344 282.277344 275.007812 282.308594 C 274.109375 282.335938 273.699219 282.890625 274.089844 283.523438 C 274.484375 284.167969 274.242188 285.042969 273.546875 285.472656 C 271 287.042969 272.386719 289.882812 277.261719 293.113281 C 282.3125 296.453125 283.605469 298.566406 280.597656 298.566406 C 279.695312 298.566406 278.054688 300.398438 276.949219 302.625 C 271.394531 313.84375 270.089844 317.015625 269.304688 321.226562 C 268.605469 325.015625 268.839844 325.890625 270.679688 326.289062 C 273.1875 326.847656 280.722656 320.628906 287.226562 312.65625 C 292.160156 306.59375 293.613281 307.023438 297.472656 315.710938 C 299.535156 320.378906 300.304688 321.015625 303.875 321.015625 C 306.105469 321.015625 308.605469 320.335938 309.429688 319.511719 C 311.085938 317.851562 311.4375 314.023438 309.992188 313.21875 C 309.472656 312.925781 309.765625 312.871094 310.632812 313.085938 C 313.273438 313.726562 311.632812 305.453125 308.300781 301.292969 C 306.660156 299.238281 304.078125 296.96875 302.578125 296.257812 C 299.695312 294.882812 299.046875 289.84375 301.757812 289.84375 C 302.597656 289.84375 303.992188 287.882812 304.855469 285.480469 C 305.722656 283.078125 306.945312 281.113281 307.558594 281.113281 C 308.1875 281.113281 308.382812 280.3125 308.011719 279.328125 C 307.636719 278.347656 307.933594 277.328125 308.695312 277.078125 " fill-opacity="1" fill-rule="nonzero"/><path fill="#d9d2c5" d="M 301.359375 167.152344 C 300.355469 169.753906 288.800781 177.644531 285.984375 177.644531 C 284.617188 177.644531 283.492188 178.207031 283.492188 178.886719 C 283.492188 180.691406 282.011719 180.386719 278.867188 177.929688 C 276.5 176.082031 276.257812 175.144531 277.164062 171.414062 C 278.847656 164.402344 280.832031 160.191406 282.429688 160.191406 C 283.242188 160.191406 283.535156 159.816406 283.089844 159.371094 C 282.632812 158.914062 283.375 157.761719 284.742188 156.808594 C 286.890625 155.296875 287.957031 155.40625 292.972656 157.617188 C 296.132812 159.023438 299.222656 159.859375 299.835938 159.484375 C 300.449219 159.101562 300.988281 159.253906 301.042969 159.804688 C 301.097656 160.363281 301.339844 161.851562 301.578125 163.128906 C 301.820312 164.402344 301.722656 166.207031 301.359375 167.152344 Z M 317.265625 156.359375 C 317.035156 154.871094 310.167969 148.011719 307.523438 146.628906 C 306 145.832031 302.5 145.046875 299.738281 144.886719 C 296.980469 144.738281 294.722656 144.226562 294.722656 143.761719 C 294.714844 142.566406 288.75 143.515625 282.875 145.648438 C 280.125 146.636719 278.027344 148.074219 278.195312 148.835938 C 278.367188 149.59375 277.667969 150.21875 276.636719 150.21875 C 275.609375 150.21875 274.769531 150.707031 274.769531 151.316406 C 274.769531 151.921875 273.652344 152.710938 272.277344 153.066406 C 269.207031 153.871094 264.5625 163.933594 264.109375 170.746094 C 263.929688 173.464844 263.214844 175.886719 262.519531 176.117188 C 261.75 176.371094 261.652344 177.886719 262.269531 180.027344 C 263.8125 185.414062 266.046875 189.011719 267.339844 188.207031 C 268 187.804688 268.152344 188.421875 267.6875 189.625 C 267.125 191.074219 267.332031 191.476562 268.320312 190.867188 C 269.125 190.371094 269.777344 190.449219 269.777344 191.046875 C 269.777344 191.636719 271.324219 192.734375 273.207031 193.484375 C 276.660156 194.851562 283.4375 194.714844 290.347656 193.152344 C 292.410156 192.679688 296.285156 189.984375 298.972656 187.152344 C 301.660156 184.324219 303.132812 182.984375 302.25 184.1875 C 301.027344 185.851562 301.007812 186.367188 302.160156 186.367188 C 302.988281 186.367188 303.953125 185.316406 304.285156 184.019531 C 304.671875 182.558594 305.695312 181.878906 307.015625 182.226562 C 309.167969 182.789062 315.167969 178.5625 313.945312 177.339844 C 313.570312 176.964844 314.320312 174.699219 315.609375 172.296875 C 317.558594 168.648438 318.21875 162.351562 317.265625 156.359375 " fill-opacity="1" fill-rule="nonzero"/><path fill="#d9d2c5" d="M 233.554688 146.476562 C 232.902344 146.476562 232.378906 145.914062 232.378906 145.226562 C 232.378906 144.539062 233.253906 143.988281 234.324219 143.988281 C 235.394531 143.988281 235.921875 144.539062 235.492188 145.226562 C 235.074219 145.914062 234.199219 146.476562 233.554688 146.476562 Z M 232.304688 50.480469 C 233.027344 50.480469 233.628906 51.042969 233.628906 51.71875 C 233.628906 52.410156 233.378906 52.972656 233.074219 52.972656 C 232.769531 52.972656 232.179688 52.410156 231.753906 51.71875 C 231.332031 51.042969 231.582031 50.480469 232.304688 50.480469 Z M 230.457031 297.410156 C 229.449219 299.039062 229.054688 298.863281 229.054688 296.753906 C 229.054688 295.757812 229.53125 295.238281 230.121094 295.597656 C 230.699219 295.953125 230.851562 296.773438 230.457031 297.410156 Z M 224.894531 212.554688 C 224.21875 212.554688 223.652344 211.992188 223.652344 211.304688 C 223.652344 210.617188 224.21875 210.054688 224.894531 210.054688 C 225.582031 210.054688 226.144531 210.617188 226.144531 211.304688 C 226.144531 211.992188 225.582031 212.554688 224.894531 212.554688 Z M 224.125 295.390625 C 223.296875 297.550781 222.40625 297.945312 222.40625 296.148438 C 222.40625 295.507812 222.957031 294.640625 223.636719 294.222656 C 224.339844 293.785156 224.558594 294.28125 224.125 295.390625 Z M 221.109375 198.152344 C 221.59375 199.492188 221.476562 203.132812 220.851562 206.253906 C 219.867188 211.160156 219.011719 218.125 218.746094 223.457031 C 218.691406 224.589844 215.40625 225.019531 206.746094 225.019531 C 200.183594 225.019531 193.871094 225.511719 192.71875 226.117188 C 191.496094 226.753906 189.367188 226.753906 187.648438 226.097656 C 186.015625 225.484375 169.328125 225.199219 150.558594 225.457031 C 121.640625 225.859375 116.4375 225.660156 116.4375 224.152344 C 116.4375 223.0625 115.839844 222.742188 114.875 223.3125 C 113.804688 223.957031 113.84375 223.597656 115.015625 222.152344 C 115.953125 221 116.925781 217.230469 117.195312 213.769531 C 117.457031 210.3125 117.910156 205.574219 118.195312 203.234375 C 118.515625 200.699219 118.132812 198.734375 117.265625 198.382812 C 116.320312 197.992188 116.410156 197.75 117.527344 197.691406 C 118.898438 197.609375 118.9375 197.226562 117.6875 195.714844 C 116.828125 194.6875 116.625 193.851562 117.222656 193.851562 C 119.007812 193.851562 119.882812 147.773438 118.148438 144.96875 C 117.597656 144.078125 117.953125 143.816406 119.132812 144.273438 C 120.703125 144.871094 121.007812 142.871094 121.113281 131.28125 C 121.179688 123.746094 121.535156 117.273438 121.910156 116.90625 C 122.273438 116.53125 122.050781 115.234375 121.410156 114.03125 C 120.488281 112.308594 120.828125 111.65625 123.015625 110.949219 C 128.230469 109.28125 130.027344 109.113281 130.703125 110.203125 C 131.070312 110.800781 133.488281 110.988281 136.058594 110.613281 C 138.640625 110.238281 141.871094 109.882812 143.238281 109.816406 C 144.613281 109.746094 146.148438 109.140625 146.648438 108.453125 C 147.25 107.636719 147.570312 107.667969 147.585938 108.523438 C 147.605469 109.621094 163.550781 110.128906 164.746094 109.078125 C 165.132812 108.738281 169.925781 108.703125 170.351562 109.042969 C 171.414062 109.863281 176.28125 109.71875 176.28125 108.863281 C 176.28125 108.289062 176.871094 107.828125 177.601562 107.828125 C 178.324219 107.828125 178.523438 108.476562 178.03125 109.265625 C 177.476562 110.15625 177.691406 110.375 178.578125 109.816406 C 179.371094 109.328125 181.191406 109.757812 182.628906 110.761719 C 184.96875 112.398438 185.691406 112.328125 189.566406 110.039062 C 192.683594 108.203125 194.273438 107.863281 195.253906 108.84375 C 196.171875 109.773438 197.34375 109.808594 198.933594 108.960938 C 200.21875 108.273438 201.949219 108.15625 202.796875 108.703125 C 203.640625 109.253906 207.699219 109.773438 211.808594 109.863281 C 223.148438 110.113281 223.859375 110.21875 223.03125 111.566406 C 222.609375 112.253906 222.714844 112.816406 223.269531 112.816406 C 224.46875 112.808594 224.261719 124.957031 223.003906 128.101562 C 222.519531 129.316406 222.816406 131.128906 223.664062 132.15625 C 224.753906 133.460938 224.789062 134.003906 223.796875 134.003906 C 222.84375 134.003906 222.410156 137.574219 222.46875 144.914062 C 222.628906 164.101562 221.746094 193.1875 220.976562 194.472656 C 220.566406 195.160156 220.617188 196.816406 221.109375 198.152344 Z M 185.003906 231.25 C 183.628906 231.25 182.511719 231.035156 182.511719 230.777344 C 182.511719 230.507812 183.628906 230 185.003906 229.640625 C 186.378906 229.285156 187.496094 229.5 187.496094 230.125 C 187.496094 230.742188 186.378906 231.25 185.003906 231.25 Z M 118.925781 116.558594 C 119.617188 116.558594 120.175781 117.113281 120.175781 117.800781 C 120.175781 118.488281 119.617188 119.050781 118.925781 119.050781 C 118.25 119.050781 117.6875 118.488281 117.6875 117.800781 C 117.6875 117.113281 118.25 116.558594 118.925781 116.558594 Z M 119.007812 80.398438 C 119.730469 80.398438 119.980469 80.960938 119.554688 81.648438 C 119.132812 82.335938 118.535156 82.890625 118.230469 82.890625 C 117.929688 82.890625 117.6875 82.335938 117.6875 81.648438 C 117.6875 80.960938 118.273438 80.398438 119.007812 80.398438 Z M 197.28125 97.351562 C 196.324219 97.933594 196.183594 97.6875 196.84375 96.613281 C 197.628906 95.335938 198.21875 95.488281 199.53125 97.28125 C 200.863281 99.105469 200.886719 99.78125 199.65625 100.570312 C 198.796875 101.113281 197.53125 101.523438 196.851562 101.480469 C 196.164062 101.433594 196.308594 101.113281 197.164062 100.765625 C 198.023438 100.425781 198.71875 99.3125 198.71875 98.300781 C 198.71875 97.230469 198.121094 96.828125 197.28125 97.351562 Z M 110.355469 115.308594 C 108.898438 115.308594 107.714844 114.78125 107.714844 114.140625 C 107.714844 111.980469 109.902344 111.578125 111.464844 113.453125 C 112.738281 114.996094 112.5625 115.308594 110.355469 115.308594 Z M 66.492188 110.316406 C 65.769531 110.316406 65.519531 109.765625 65.945312 109.078125 C 66.367188 108.386719 66.964844 107.828125 67.269531 107.828125 C 67.570312 107.828125 67.8125 108.386719 67.8125 109.078125 C 67.8125 109.765625 67.222656 110.316406 66.492188 110.316406 Z M 361.09375 241.679688 C 360.238281 242.195312 359.542969 242.089844 359.542969 241.445312 C 359.542969 240.097656 349.585938 237.324219 348.085938 238.25 C 347.527344 238.597656 347.070312 238.332031 347.070312 237.660156 C 347.070312 236.519531 345.015625 235.847656 337.09375 234.367188 C 335.382812 234.042969 332.578125 233.515625 330.867188 233.1875 C 326.640625 232.382812 315.085938 231.019531 309.328125 230.652344 C 306.742188 230.492188 304.292969 230.027344 303.902344 229.632812 C 303.507812 229.242188 301.804688 229.4375 300.121094 230.082031 C 298.4375 230.722656 297.320312 230.820312 297.632812 230.3125 C 297.957031 229.800781 296.160156 229.3125 293.648438 229.226562 C 291.152344 229.140625 284.617188 228.667969 279.125 228.179688 C 270.8125 227.4375 249.207031 226.984375 249.207031 227.542969 C 249.207031 227.640625 247.617188 227.972656 245.671875 228.292969 C 243.402344 228.660156 242.421875 228.402344 242.941406 227.570312 C 243.375 226.847656 242.871094 226.195312 241.796875 226.105469 C 238.191406 225.820312 237.574219 225.644531 236.527344 224.597656 C 235.324219 223.394531 234.871094 210.027344 235.976562 208.1875 C 236.554688 207.214844 237.5 182.902344 237.351562 172.65625 C 237.316406 171.625 237.316406 169.4375 237.332031 167.796875 C 237.351562 166.15625 236.652344 163.941406 235.796875 162.886719 C 234.554688 161.339844 234.554688 161.144531 235.816406 161.898438 C 237.816406 163.101562 239.207031 159.699219 237.921875 156.761719 C 237.394531 155.558594 237.144531 154.019531 237.359375 153.332031 C 237.574219 152.648438 237.875 146.949219 238.027344 140.671875 C 238.191406 134.386719 238.671875 128.683594 239.109375 127.980469 C 239.539062 127.273438 239.332031 126.351562 238.636719 125.925781 C 237.304688 125.101562 237.144531 111.613281 238.457031 111.507812 C 238.886719 111.46875 245.019531 111.203125 252.09375 110.90625 C 259.152344 110.613281 265.554688 109.996094 266.304688 109.53125 C 267.074219 109.058594 267.3125 109.253906 266.859375 109.996094 C 266.410156 110.71875 266.894531 111.628906 267.910156 112.023438 C 268.9375 112.414062 269.777344 112.210938 269.777344 111.566406 C 269.777344 110.925781 275.75 110.355469 283.179688 110.300781 C 305.5 110.121094 307.847656 109.898438 307.421875 107.925781 C 307.117188 106.515625 307.402344 106.460938 308.847656 107.65625 C 310.265625 108.84375 311.804688 108.710938 316.089844 107.050781 C 321.722656 104.863281 325.882812 101.953125 325.882812 100.183594 C 325.882812 98.273438 320.296875 95.539062 314.75 94.730469 C 304.929688 93.300781 290.535156 93.539062 290 95.140625 C 289.734375 95.960938 289.027344 96.316406 288.429688 95.953125 C 287.832031 95.585938 287.652344 94.316406 288.027344 93.140625 C 288.429688 91.890625 288.277344 91.515625 287.660156 92.246094 C 285.785156 94.460938 281.867188 94.988281 277.570312 93.605469 C 275.9375 93.078125 274.761719 93.222656 274.761719 93.933594 C 274.761719 95.125 266.789062 94.722656 264.707031 93.433594 C 264.160156 93.105469 263.386719 93.355469 262.992188 93.996094 C 262.574219 94.675781 260.792969 94.757812 258.839844 94.191406 C 256.957031 93.65625 254.296875 93.613281 252.941406 94.113281 C 251.574219 94.605469 249.332031 94.820312 247.957031 94.578125 C 246.59375 94.347656 243.644531 94.003906 241.414062 93.816406 C 237.457031 93.5 237.367188 93.355469 237.234375 87.253906 C 237.164062 83.828125 236.957031 78.21875 236.789062 74.792969 C 236.617188 71.363281 237.089844 67.75 237.851562 66.757812 C 238.753906 65.585938 238.769531 65.238281 237.90625 65.757812 C 237 66.292969 236.484375 61.6875 236.289062 51.347656 C 236.019531 37.460938 235.707031 33.410156 234.210938 24.382812 C 233.933594 22.714844 232.769531 20.476562 231.617188 19.402344 C 230.46875 18.324219 229.921875 18.140625 230.40625 19 C 230.941406 19.957031 230.519531 20.554688 229.332031 20.554688 C 228.261719 20.554688 227.34375 21.257812 227.289062 22.117188 C 227.226562 22.972656 227.003906 25.082031 226.789062 26.796875 C 225.710938 35.363281 225.246094 55.140625 226.074219 57.335938 C 226.644531 58.832031 226.378906 60.828125 225.414062 62.320312 C 224.269531 64.089844 223.886719 69.148438 224.109375 79.570312 L 224.414062 94.328125 L 220.914062 93.808594 C 218.929688 93.523438 217.414062 93.882812 217.394531 94.640625 C 217.386719 95.46875 217.019531 95.417969 216.429688 94.488281 C 215.851562 93.585938 214.804688 93.417969 213.789062 94.042969 C 212.863281 94.621094 210.53125 94.640625 208.617188 94.09375 C 206.699219 93.539062 204.824219 93.410156 204.441406 93.792969 C 204.058594 94.175781 199.664062 94.355469 194.683594 94.1875 C 189.699219 94.003906 182.253906 93.890625 178.148438 93.914062 C 174.03125 93.945312 166.460938 93.945312 161.320312 93.914062 C 156.175781 93.890625 151.265625 93.945312 150.410156 94.023438 C 146.925781 94.355469 144.300781 94.308594 140.75 93.828125 C 136.570312 93.273438 131.113281 95.148438 132.128906 96.789062 C 132.488281 97.371094 132.195312 97.855469 131.472656 97.855469 C 130.738281 97.855469 130.148438 96.96875 130.148438 95.890625 C 130.148438 94.621094 129.160156 94.015625 127.339844 94.160156 C 125.804688 94.285156 123.972656 94.328125 123.292969 94.257812 C 122.507812 94.167969 122.148438 87.273438 122.335938 75.71875 C 122.828125 44.320312 122.785156 41.347656 121.773438 40.605469 C 121.230469 40.203125 120.597656 38.277344 120.375 36.3125 C 120.070312 33.699219 120.375 33 121.527344 33.714844 C 122.640625 34.402344 122.855469 34.054688 122.257812 32.5 C 121.792969 31.304688 121.417969 28.734375 121.417969 26.777344 C 121.417969 24.832031 120.6875 22.492188 119.792969 21.578125 C 118.898438 20.679688 117.792969 18.964844 117.347656 17.777344 C 115.238281 12.210938 109.875 20.554688 109.5625 29.878906 C 109.460938 32.730469 109.085938 35.589844 108.738281 36.234375 C 108.382812 36.863281 108.179688 39.070312 108.285156 41.125 C 108.382812 43.1875 108.042969 46.113281 107.515625 47.632812 C 106.972656 49.175781 107.082031 50.714844 107.757812 51.132812 C 108.535156 51.617188 108.535156 52.6875 107.757812 54.132812 C 107.097656 55.375 106.828125 56.660156 107.167969 57 C 108.375 58.203125 108.785156 62.902344 107.746094 63.542969 C 107.167969 63.902344 106.988281 65.3125 107.347656 66.675781 C 107.703125 68.035156 108.375 68.917969 108.847656 68.625 C 109.3125 68.335938 110.507812 68.59375 111.5 69.214844 C 112.964844 70.113281 112.996094 70.621094 111.695312 71.917969 C 110.402344 73.222656 109.890625 73.183594 108.972656 71.695312 C 108.019531 70.140625 107.722656 70.191406 107.015625 72.03125 C 106.554688 73.230469 106.472656 75.320312 106.828125 76.675781 C 107.1875 78.042969 106.875 79.148438 106.140625 79.148438 C 105.402344 79.148438 105.140625 79.488281 105.554688 79.90625 C 105.960938 80.320312 105.785156 82.023438 105.152344 83.695312 C 104.175781 86.238281 104.445312 86.898438 106.785156 87.84375 C 108.9375 88.710938 109.082031 88.988281 107.402344 89.050781 C 105.929688 89.105469 105.214844 90.128906 105.214844 92.203125 C 105.214844 94.605469 105.695312 95.113281 107.402344 94.496094 C 108.597656 94.070312 109.210938 94.132812 108.757812 94.640625 C 107.273438 96.28125 88.394531 97.65625 86.964844 96.21875 C 86.535156 95.792969 85.070312 96.042969 83.707031 96.773438 C 81.832031 97.78125 81.457031 97.738281 82.152344 96.605469 C 82.859375 95.46875 82.464844 95.433594 80.527344 96.476562 C 77.449219 98.121094 67.699219 99.058594 68.582031 97.621094 C 68.929688 97.058594 68.304688 96.605469 67.1875 96.605469 C 66.082031 96.605469 65.429688 97.023438 65.753906 97.542969 C 66.0625 98.058594 62.59375 98.476562 58.03125 98.476562 C 53.464844 98.476562 49.214844 98.710938 48.574219 99.007812 C 47.941406 99.292969 43.089844 99.675781 37.816406 99.855469 C 27.171875 100.21875 18.984375 103.246094 18.457031 107.003906 C 18.28125 108.273438 18.457031 108.976562 18.859375 108.574219 C 19.261719 108.175781 20.351562 108.488281 21.289062 109.265625 C 22.226562 110.039062 23.351562 110.316406 23.789062 109.890625 C 24.21875 109.453125 25.21875 109.628906 26.011719 110.285156 C 28.324219 112.199219 45.597656 112.933594 47.742188 111.191406 C 48.804688 110.335938 49.242188 110.273438 48.789062 111.050781 C 48.214844 112 51.660156 112.34375 60.070312 112.21875 C 66.730469 112.121094 72.742188 112.398438 73.429688 112.851562 C 75.097656 113.941406 85.410156 112.808594 84.679688 111.613281 C 84.355469 111.09375 86.179688 110.96875 88.730469 111.328125 C 94.5 112.140625 99.035156 112.191406 101.472656 111.488281 C 102.535156 111.175781 103.203125 111.636719 103.015625 112.550781 C 102.839844 113.433594 103.273438 115.265625 104 116.601562 C 104.984375 118.433594 104.898438 119.074219 103.703125 119.148438 C 102.453125 119.21875 102.445312 119.378906 103.660156 119.871094 C 105.703125 120.699219 105.640625 124.183594 103.507812 128.289062 C 102.105469 130.996094 102.078125 132.40625 103.359375 136.128906 C 104.238281 138.699219 104.527344 142.066406 104.019531 143.886719 C 103.519531 145.65625 103.195312 158.039062 103.292969 171.40625 C 103.429688 189.601562 103.054688 196.421875 101.820312 198.527344 C 100.839844 200.1875 100.6875 201.332031 101.445312 201.332031 C 102.152344 201.332031 102.722656 202.171875 102.722656 203.199219 C 102.722656 204.226562 102.304688 205.074219 101.785156 205.074219 C 101.273438 205.074219 100.855469 209.617188 100.855469 215.160156 C 100.867188 220.707031 100.328125 225.582031 99.667969 225.984375 C 98.425781 226.753906 90.027344 227.511719 83.175781 227.464844 C 81.007812 227.457031 78.867188 228.027344 78.417969 228.742188 C 77.984375 229.457031 76.957031 229.625 76.144531 229.117188 C 74.042969 227.777344 67.902344 227.609375 67.132812 228.855469 C 66.777344 229.4375 65.144531 229.402344 63.5 228.777344 C 61.855469 228.152344 59.039062 227.910156 57.222656 228.242188 C 55.402344 228.570312 48.492188 229.125 41.859375 229.472656 C 35.226562 229.820312 28.949219 230.171875 27.921875 230.257812 C 26.898438 230.339844 25.34375 231.304688 24.476562 232.382812 C 23.609375 233.472656 22.976562 233.804688 23.066406 233.117188 C 23.433594 230.339844 22.839844 229.777344 21.074219 231.242188 C 20.054688 232.089844 19.53125 233.277344 19.90625 233.882812 C 20.28125 234.492188 19.921875 234.992188 19.117188 234.992188 C 15.886719 234.992188 20.636719 238.488281 24.96875 239.304688 C 28.4375 239.957031 29.769531 239.640625 31.117188 237.875 C 32.617188 235.894531 32.832031 235.867188 32.871094 237.652344 C 32.894531 239.117188 34.535156 239.9375 38.625 240.554688 C 43.339844 241.257812 44.644531 241.007812 46.0625 239.132812 C 47.082031 237.796875 47.804688 237.5 47.832031 238.417969 C 47.875 240.359375 51.609375 240.507812 51.609375 238.578125 C 51.609375 237.660156 52.3125 237.769531 53.652344 238.875 C 55 240 59.410156 240.605469 66.742188 240.6875 C 72.8125 240.75 78.082031 241.097656 78.445312 241.464844 C 78.8125 241.828125 82.035156 241.457031 85.617188 240.632812 C 91.902344 239.195312 100.382812 240.105469 100.070312 242.195312 C 99.675781 244.792969 100.394531 246.257812 101.667969 245.472656 C 102.570312 244.910156 102.765625 245.125 102.207031 246.035156 C 101.714844 246.839844 100.785156 247.179688 100.140625 246.785156 C 99.507812 246.382812 98.984375 247.167969 98.984375 248.527344 C 98.984375 249.882812 98.640625 251.882812 98.222656 252.964844 C 97.730469 254.257812 98.160156 254.9375 99.472656 254.9375 C 100.570312 254.9375 101.472656 255.535156 101.472656 256.257812 C 101.472656 256.980469 100.957031 257.257812 100.3125 256.863281 C 97.605469 255.1875 96.578125 261.230469 96.535156 278.972656 C 96.507812 291.46875 96.652344 292.632812 98.347656 293.847656 C 99.027344 294.328125 99.597656 295.726562 99.597656 296.960938 C 99.597656 298.191406 100.285156 299.058594 101.125 298.898438 C 102.027344 298.722656 102.328125 299.390625 101.882812 300.566406 C 101.300781 302.078125 101.820312 302.433594 104.105469 302.113281 C 105.75 301.882812 106.898438 301.191406 106.667969 300.578125 C 106.4375 299.972656 106.769531 299.132812 107.402344 298.714844 C 110.425781 296.703125 112.695312 281.417969 113.097656 260.355469 C 113.222656 254.078125 113.742188 249.203125 114.257812 249.515625 C 115.25 250.132812 115.585938 248.417969 115.273438 244.304688 C 115 240.6875 121.460938 238.6875 130.773438 239.5 C 144.507812 240.695312 160.675781 240.832031 162.800781 239.777344 C 164.050781 239.152344 165.230469 239.238281 165.691406 239.992188 C 166.167969 240.757812 167.238281 240.832031 168.433594 240.152344 C 169.515625 239.554688 171.445312 239.328125 172.71875 239.660156 C 174.046875 240.007812 175.03125 239.617188 175.03125 238.722656 C 175.03125 237.5 175.425781 237.5 176.90625 238.734375 C 178.015625 239.660156 180.300781 239.984375 182.511719 239.542969 C 184.566406 239.132812 186.253906 239.296875 186.253906 239.910156 C 186.253906 240.890625 189.84375 241.214844 199.34375 241.105469 C 208.816406 240.992188 212.429688 240.535156 212.429688 239.464844 C 212.429688 238.785156 213.101562 238.902344 213.933594 239.730469 C 214.753906 240.554688 216.851562 241.230469 218.601562 241.242188 C 220.40625 241.257812 221.171875 241.660156 220.386719 242.179688 C 219.394531 242.820312 219.128906 250.125 219.484375 266.785156 C 220.121094 296.910156 219.976562 295.792969 223.652344 298.613281 C 225.421875 299.980469 226.027344 301.023438 225.066406 301.039062 C 223.957031 301.058594 223.601562 301.972656 224.039062 303.660156 C 224.527344 305.511719 224.226562 306.0625 223.003906 305.597656 C 221.664062 305.078125 221.546875 305.535156 222.496094 307.675781 C 223.15625 309.183594 224.03125 311.398438 224.441406 312.59375 C 224.851562 313.796875 225.726562 314.78125 226.378906 314.78125 C 227.03125 314.78125 227.207031 315.898438 226.769531 317.273438 C 226.332031 318.648438 226.539062 319.765625 227.226562 319.765625 C 227.914062 319.765625 228.824219 320.886719 229.261719 322.265625 L 229.261719 322.253906 C 230.109375 324.917969 234.171875 325.648438 235.5625 323.398438 C 237.109375 320.898438 237.53125 305.882812 236.101562 304.167969 C 235.074219 302.917969 235.289062 302.195312 236.984375 301.203125 C 238.554688 300.292969 238.707031 299.882812 237.464844 299.855469 C 236.503906 299.835938 236.011719 299.507812 236.386719 299.132812 C 236.769531 298.753906 236.628906 296.445312 236.074219 293.996094 C 235.519531 291.542969 235.484375 288.398438 236.003906 287.007812 C 236.519531 285.613281 236.261719 282.496094 235.429688 280.085938 C 234.511719 277.417969 234.316406 274.347656 234.921875 272.222656 C 235.464844 270.3125 235.464844 265.5 234.921875 261.535156 C 234.359375 257.453125 234.40625 254.132812 235.027344 253.894531 C 235.636719 253.667969 235.835938 253 235.476562 252.410156 C 235.109375 251.828125 235.164062 249.179688 235.589844 246.515625 L 236.359375 241.695312 L 249.644531 241.964844 C 256.949219 242.113281 265.554688 242.5625 268.789062 242.953125 C 272.109375 243.355469 274.976562 243.140625 275.402344 242.445312 C 275.882812 241.660156 277.152344 241.75 278.890625 242.695312 C 280.429688 243.535156 288.011719 244.320312 296.304688 244.515625 C 304.375 244.707031 311.648438 245.277344 312.472656 245.777344 C 313.292969 246.285156 315.945312 246.597656 318.367188 246.472656 C 320.785156 246.339844 328.523438 246.203125 335.578125 246.160156 C 342.625 246.125 348.148438 245.695312 347.84375 245.214844 C 347.546875 244.730469 349.949219 244.527344 353.183594 244.757812 C 357.65625 245.070312 359.488281 244.644531 360.863281 242.953125 C 361.96875 241.589844 362.066406 241.097656 361.09375 241.679688 " fill-opacity="1" fill-rule="nonzero"/><path fill="#d9d2c5" d="M 34.191406 194.824219 C 31.289062 197.171875 26.449219 206.921875 27.609375 208.082031 C 28.886719 209.359375 30.347656 208.875 32.910156 206.3125 C 34.28125 204.945312 35.402344 204.097656 35.402344 204.449219 C 35.402344 204.789062 36.464844 204.089844 37.769531 202.886719 C 39.074219 201.691406 42.152344 199.03125 44.625 196.976562 C 49.492188 192.941406 50.207031 191.359375 47.171875 191.359375 C 46.089844 191.359375 45.597656 190.753906 46.0625 190 C 46.664062 189.03125 47.289062 189.03125 48.25 189.992188 C 49.214844 190.957031 50.359375 190.628906 52.269531 188.832031 C 54.011719 187.199219 54.984375 186.875 55.074219 187.902344 C 55.195312 189.457031 56.171875 193.867188 56.644531 195.101562 C 56.777344 195.4375 56.820312 196.152344 56.734375 196.6875 C 56.304688 199.269531 60.664062 204.941406 63.9375 206.082031 C 69.964844 208.1875 72.125 205.671875 71.171875 197.644531 C 70.742188 194.039062 69.777344 190.351562 69.027344 189.449219 C 68.277344 188.546875 67.519531 186.5 67.339844 184.902344 C 67.152344 183.316406 66.035156 180.164062 64.859375 177.902344 C 62.714844 173.804688 62.722656 173.789062 67.207031 166.394531 C 69.679688 162.332031 72.242188 158.664062 72.890625 158.261719 C 74.769531 157.101562 79.035156 148.085938 79.035156 145.28125 C 79.035156 141.863281 75.390625 142.011719 72.054688 145.566406 C 70.617188 147.09375 66.492188 151.898438 62.886719 156.234375 L 56.332031 164.136719 L 52.046875 157.761719 C 49.679688 154.253906 47.324219 151.65625 46.796875 151.976562 C 46.261719 152.308594 44.859375 150.925781 43.660156 148.898438 C 42.261719 146.53125 40.527344 145.261719 38.761719 145.328125 C 37.253906 145.378906 36.726562 145.710938 37.582031 146.058594 C 39.777344 146.941406 39.53125 150.21875 37.273438 150.21875 C 35.214844 150.21875 34.699219 152.253906 36.582031 152.914062 C 38.179688 153.476562 49.152344 175.144531 47.832031 175.144531 C 47.261719 175.144531 46.457031 176.128906 46.054688 177.332031 C 45.65625 178.53125 43.089844 181.949219 40.359375 184.921875 C 37.628906 187.894531 35.714844 190.859375 36.117188 191.503906 C 36.511719 192.144531 35.648438 193.636719 34.191406 194.824219 " fill-opacity="1" fill-rule="nonzero"/><g clip-path="url(#17acba4695)"><path fill="#d9d2c5" d="M 20.371094 337 C 20.066406 337 19.480469 336.4375 19.050781 335.75 C 18.628906 335.070312 18.878906 334.511719 19.601562 334.511719 C 20.328125 334.511719 20.921875 335.070312 20.921875 335.75 C 20.921875 336.4375 20.675781 337 20.371094 337 Z M 370.3125 8.308594 C 364.363281 9.03125 357.203125 11.761719 355.898438 13.820312 C 355.339844 14.691406 354.355469 15.074219 353.710938 14.683594 C 353.070312 14.285156 352.535156 14.414062 352.515625 14.96875 C 352.507812 15.523438 349.703125 17.632812 346.285156 19.65625 C 342.875 21.683594 339.757812 24.359375 339.367188 25.601562 C 338.972656 26.84375 338.078125 27.492188 337.375 27.066406 C 335.953125 26.191406 330.6875 28.601562 327.242188 31.699219 C 326.007812 32.816406 322.9375 34.777344 320.414062 36.066406 C 317.890625 37.359375 314.0625 40.234375 311.910156 42.46875 C 309.761719 44.699219 307.074219 46.523438 305.957031 46.523438 C 304.839844 46.523438 303.921875 47.019531 303.921875 47.632812 C 303.921875 48.253906 299.855469 51.289062 294.886719 54.386719 C 289.914062 57.484375 284.4375 61.246094 282.726562 62.734375 C 281.011719 64.21875 278.074219 66.351562 276.179688 67.464844 C 274.296875 68.582031 272.753906 69.941406 272.753906 70.476562 C 272.753906 71.011719 271.914062 71.449219 270.886719 71.449219 C 269.863281 71.449219 269.011719 72.039062 269.011719 72.761719 C 269.011719 73.484375 267.191406 74.941406 264.96875 75.996094 C 257.074219 79.722656 255.296875 80.777344 255.296875 81.777344 C 255.296875 82.734375 252.359375 85.699219 246.78125 90.359375 C 245.414062 91.511719 243.976562 92.125 243.59375 91.742188 C 243.207031 91.359375 242.539062 91.964844 242.113281 93.089844 C 241.671875 94.214844 240.808594 95.144531 240.183594 95.144531 C 239.558594 95.144531 237.164062 96.964844 234.851562 99.1875 C 232.539062 101.421875 228.320312 104.929688 225.460938 106.980469 C 222.613281 109.035156 218.65625 112.214844 216.675781 114.027344 C 214.703125 115.847656 212.675781 116.964844 212.175781 116.519531 C 211.675781 116.074219 211.601562 116.304688 212.015625 117.027344 C 212.933594 118.652344 207.070312 124.375 203.246094 125.589844 C 201.703125 126.082031 200.441406 126.964844 200.441406 127.550781 C 200.441406 128.152344 199.445312 128.957031 198.222656 129.339844 C 195.738281 130.125 179.257812 145.132812 179.257812 146.605469 C 179.257812 147.917969 171.417969 154.902344 169.890625 154.945312 C 169.195312 154.960938 167.507812 156.480469 166.148438 158.320312 C 164.785156 160.148438 162.945312 162.257812 162.054688 162.988281 C 161.160156 163.730469 158.933594 165.730469 157.113281 167.445312 C 155.285156 169.15625 153.367188 170.433594 152.855469 170.265625 C 152.339844 170.101562 152.242188 170.808594 152.625 171.828125 C 153.015625 172.847656 152.804688 173.683594 152.144531 173.683594 C 151.484375 173.683594 147.457031 177.050781 143.203125 181.15625 C 138.945312 185.273438 134.972656 188.640625 134.375 188.640625 C 133.785156 188.640625 132.9375 189.765625 132.5 191.140625 C 132.070312 192.503906 130.910156 193.628906 129.929688 193.628906 C 128.945312 193.628906 128.144531 194.21875 128.144531 194.953125 C 128.144531 195.675781 127.632812 195.960938 127.027344 195.578125 C 125.964844 194.925781 124.160156 197.765625 123.890625 200.488281 C 123.832031 201.175781 123.214844 201.980469 122.527344 202.273438 C 121.839844 202.570312 120.207031 204.183594 118.886719 205.863281 C 115.101562 210.671875 110.894531 214.613281 110.234375 213.960938 C 109.910156 213.628906 108.625 214.953125 107.386719 216.898438 C 106.144531 218.84375 104.421875 220.878906 103.546875 221.433594 C 102.671875 221.976562 101.957031 222.984375 101.957031 223.675781 C 101.957031 224.363281 98.546875 228.324219 94.367188 232.484375 C 89.304688 237.539062 86.976562 240.769531 87.359375 242.234375 C 87.761719 243.78125 87.332031 244.28125 85.902344 243.921875 C 84.621094 243.601562 82.75 245.144531 80.777344 248.136719 C 79.074219 250.726562 76.691406 253.753906 75.484375 254.859375 C 74.269531 255.976562 73.289062 257.441406 73.289062 258.128906 C 73.289062 258.816406 71.039062 261.554688 68.296875 264.214844 C 65.558594 266.878906 63.316406 269.789062 63.316406 270.6875 C 63.316406 271.582031 62.753906 271.976562 62.0625 271.546875 C 61.378906 271.128906 60.816406 271.429688 60.816406 272.226562 C 60.816406 273.03125 59.414062 274.789062 57.699219 276.136719 C 55.984375 277.484375 54.585938 279.296875 54.585938 280.164062 C 54.585938 281.03125 52.878906 283.25 50.800781 285.101562 C 48.71875 286.957031 47.316406 288.957031 47.675781 289.546875 C 48.039062 290.125 47.460938 290.949219 46.398438 291.359375 C 45.324219 291.769531 44.78125 292.625 45.175781 293.269531 C 45.566406 293.910156 44.773438 294.789062 43.40625 295.226562 C 42.039062 295.652344 41.046875 296.679688 41.207031 297.492188 C 41.363281 298.304688 40.789062 298.832031 39.933594 298.664062 C 39.074219 298.492188 38.378906 299.375 38.378906 300.617188 C 38.378906 302.402344 32.449219 310.703125 28.433594 314.5625 C 28.074219 314.902344 26.691406 317.324219 25.363281 319.929688 C 24.03125 322.535156 21.726562 325.992188 20.238281 327.597656 C 15.675781 332.523438 12.191406 337.902344 12.191406 340.035156 C 12.191406 341.148438 11.40625 342.363281 10.449219 342.730469 C 9.488281 343.105469 8.371094 344.347656 7.96875 345.5 C 7.570312 346.652344 6.113281 349.273438 4.746094 351.335938 C -0.226562 358.792969 -0.773438 360.472656 0.746094 363.804688 C 1.53125 365.515625 2.925781 366.917969 3.847656 366.917969 C 5.691406 366.917969 10.953125 361.382812 10.953125 359.425781 C 10.953125 358.75 11.515625 358.195312 12.191406 358.195312 C 12.878906 358.195312 13.441406 357.640625 13.441406 356.960938 C 13.441406 356.285156 14.246094 354.742188 15.238281 353.535156 C 21.316406 346.082031 27.960938 337.640625 29.019531 336 C 31.296875 332.492188 35.207031 327.769531 39.503906 323.3125 C 41.835938 320.902344 44.359375 317.464844 45.109375 315.679688 C 45.863281 313.882812 48.289062 310.902344 50.503906 309.046875 C 52.71875 307.179688 54.394531 305.277344 54.246094 304.8125 C 54.09375 304.339844 55.511719 301.945312 57.394531 299.484375 C 59.28125 297.019531 60.816406 294.351562 60.816406 293.554688 C 60.816406 292.769531 61.566406 292.117188 62.476562 292.117188 C 63.386719 292.117188 64.914062 290.574219 65.859375 288.6875 C 68.359375 283.734375 82.484375 268.433594 84.554688 268.433594 C 85.046875 268.433594 86.191406 266.636719 87.101562 264.449219 C 88.5625 260.914062 96.421875 252.226562 98.160156 252.214844 C 99.851562 252.214844 107.125 239.808594 106.257812 238.414062 C 105.636719 237.40625 105.832031 237.199219 106.820312 237.808594 C 108.929688 239.109375 126.910156 220.058594 125.949219 217.539062 C 125.484375 216.34375 125.730469 215.976562 126.625 216.53125 C 128.671875 217.789062 132.828125 214.800781 134.445312 210.917969 C 135.203125 209.066406 137.464844 206.878906 139.464844 206.050781 C 141.464844 205.230469 143.097656 204.03125 143.097656 203.40625 C 143.097656 202.773438 145.347656 199.925781 148.089844 197.066406 C 150.828125 194.210938 153.070312 191.460938 153.070312 190.945312 C 153.070312 190.425781 154.894531 189.121094 157.125 188.042969 C 159.355469 186.960938 162.578125 184.097656 164.292969 181.6875 C 166.007812 179.265625 168.730469 176.746094 170.339844 176.097656 C 171.945312 175.433594 173.550781 173.785156 173.910156 172.417969 C 174.265625 171.058594 175.015625 169.945312 175.578125 169.945312 C 176.132812 169.945312 179.472656 167.140625 183 163.714844 C 186.515625 160.285156 191.308594 156.007812 193.660156 154.222656 C 196.007812 152.425781 197.613281 150.453125 197.230469 149.828125 C 196.835938 149.195312 197.058594 148.839844 197.710938 149.027344 C 198.910156 149.375 205.71875 144.375 211.433594 138.957031 C 213.140625 137.347656 216.273438 135.0625 218.398438 133.894531 C 220.523438 132.714844 222.78125 130.617188 223.414062 129.222656 C 224.890625 125.964844 232.328125 120.839844 234.042969 121.902344 C 235.21875 122.632812 235.90625 121.046875 235.503906 118.519531 C 235.421875 118 235.773438 117.722656 236.289062 117.894531 C 236.808594 118.0625 238.433594 117.082031 239.90625 115.714844 C 246.503906 109.5625 248.851562 107.609375 249.621094 107.609375 C 250.066406 107.609375 251.808594 106.125 253.492188 104.304688 C 255.175781 102.492188 256.546875 101.3125 256.546875 101.6875 C 256.546875 102.0625 258.359375 100.679688 260.574219 98.605469 C 262.789062 96.535156 267.46875 93.019531 270.976562 90.777344 C 274.476562 88.535156 278.808594 85.234375 280.601562 83.4375 C 282.394531 81.644531 284.59375 80.179688 285.484375 80.179688 C 286.367188 80.179688 288.691406 78.492188 290.625 76.441406 C 292.574219 74.386719 294.851562 72.699219 295.695312 72.699219 C 296.546875 72.699219 298.457031 71.296875 299.949219 69.582031 C 301.441406 67.867188 303.257812 66.46875 303.992188 66.46875 C 304.714844 66.46875 304.910156 65.761719 304.421875 64.902344 C 303.929688 64.046875 303.964844 63.746094 304.5 64.234375 C 305.421875 65.058594 312.492188 62.117188 313.894531 60.339844 C 315.480469 58.324219 325 51.503906 326.230469 51.503906 C 326.992188 51.503906 327.605469 50.914062 327.605469 50.183594 C 327.605469 49.457031 328.089844 49.152344 328.667969 49.523438 C 329.25 49.878906 330.910156 49.066406 332.355469 47.726562 C 333.804688 46.378906 335.578125 45.269531 336.304688 45.269531 C 337.742188 45.269531 342.238281 42.886719 344.554688 40.90625 C 345.359375 40.226562 347.792969 38.261719 349.980469 36.546875 C 352.167969 34.832031 355.105469 32.207031 356.515625 30.71875 C 357.917969 29.21875 360.542969 27.351562 362.355469 26.558594 C 366.980469 24.53125 374.992188 14.566406 374.992188 10.84375 C 374.992188 7.996094 374.605469 7.792969 370.3125 8.308594 " fill-opacity="1" fill-rule="nonzero"/></g></svg>